<svg viewBox="0 0 1320.15639 401.99312" xmlns="http://www.w3.org/2000/svg" data-name="Layer 1" id="Layer_1">
  <defs>
    <style>
      .cls-1 {
        fill: #231f20;
      }
    </style>
  </defs>
  <polygon points="469.64521 400.70169 450.87435 347.58366 450.87435 400.70169 438.82114 400.70169 438.82114 314.72053 451.90522 314.72053 469.64521 365.75413 469.64521 314.72053 481.68711 314.72053 481.68711 400.70169 469.64521 400.70169" class="cls-1"></polygon>
  <polygon points="537.20671 326.7171 514.94677 326.7171 514.94677 350.16649 530.99884 350.16649 530.99884 362.16311 514.94677 362.16311 514.94677 388.70511 537.20671 388.70511 537.20671 400.71303 501.97595 400.71303 501.97595 314.73183 537.20671 314.73183 537.20671 326.7171" class="cls-1"></polygon>
  <polygon points="594.36892 400.70169 585.43094 348.63721 576.90076 400.70169 565.60656 400.70169 552.66972 314.72053 565.60656 314.72053 572.09761 366.16196 580.25394 314.72053 591.0044 314.72053 599.53459 366.16196 606.16156 314.72053 618.72459 314.72053 605.65178 400.70169 594.36892 400.70169" class="cls-1"></polygon>
  <polygon points="688.49504 400.70169 675.55823 400.70169 675.55823 365.89006 659.3589 314.72053 672.82809 314.72053 682.0266 348.48994 690.95324 314.72053 704.02605 314.72053 688.49504 365.89006 688.49504 400.70169" class="cls-1"></polygon>
  <path d="M759.68158,372.74366c0,12.7329-1.04218,17.38882-5.18834,22.40721-3.51172,4.25942-9.07391,6.84225-15.03257,6.84225s-11.64544-2.59417-15.14582-6.84225c-4.13483-5.01839-5.16566-9.77626-5.16566-22.40721v-30.04242c0-12.63096,1.03084-17.41146,5.16566-22.45253,3.50045-4.24808,9.07391-6.81957,15.14582-6.81957s11.66805,2.57149,15.03257,6.81957c4.1461,5.04107,5.18834,9.67431,5.18834,22.45253v30.04242ZM732.08599,371.31629c0,8.11101.26053,11.98524.90624,13.77512,1.03084,3.11526,3.36445,4.9051,6.46844,4.9051s5.7094-2.06174,6.61571-5.66411c.39646-1.67659.63438-5.80004.63438-13.01611v-27.19906c0-8.38287-.23792-11.98524-.8949-13.78646-1.04218-3.08128-3.36445-4.8938-6.35511-4.8938-3.36445,0-5.83406,2.06174-6.7403,5.67545-.38519,1.66525-.63438,6.04926-.63438,13.00481v27.19906h-.00007Z" class="cls-1"></path>
  <path d="M791.06069,400.70169h-12.9368v-85.98116h18.11381c15.03257,0,21.6256,7.73716,21.6256,24.88809,0,11.06766-2.33361,17.01497-8.67738,21.64821l9.9915,39.44486h-13.74113l-8.15633-35.95575h-6.21918v35.95575h-.00007ZM795.19552,352.73802c4.40669,0,6.08325-.63438,7.51061-2.67344,1.30277-2.07305,2.19768-5.94731,2.19768-10.33133,0-4.64458-.8949-8.76803-2.58287-10.6825-1.30277-1.80118-2.97933-2.34495-7.12542-2.34495h-4.13483v26.04356h4.13483v-.01134Z" class="cls-1"></path>
  <polygon points="850.51122 314.73183 850.51122 349.14696 865.79297 314.73183 879.38683 314.73183 864.50154 344.61567 881.32398 400.71303 867.46953 400.71303 856.45853 360.74708 850.51122 372.59638 850.51122 400.71303 837.55174 400.71303 837.55174 314.73183 850.51122 314.73183" class="cls-1"></polygon>
  <path d="M214.85096,165.95837c0,26.20217-.97423,31.42448-6.89888,40.91751-7.23873,11.13564-21.04783,18.01186-36.51084,18.01186s-29.27211-6.87624-36.51084-18.01186c-5.91333-9.49305-6.89888-15.05519-6.89888-40.91751V58.60086c0-25.87365.99689-31.4358,6.89888-40.91752C142.16913,6.88756,155.98955,0,171.44124,0s29.27211,6.89888,36.51084,17.68335c5.92465,9.48172,6.89888,15.04387,6.89888,40.91752v107.35751ZM184.27611,46.15115c0-12.44971-3.6137-17.68335-12.83487-17.68335s-12.82355,5.23364-12.82355,17.68335v132.58545c0,12.44972,3.6137,17.68335,12.82355,17.68335s12.83487-5.23363,12.83487-17.68335V46.15115Z" class="cls-1"></path>
  <path d="M290.48947,3.28518c22.98496,0,32.43269,2.67346,43.35307,12.67628,10.44462,9.58367,10.90908,20.61736,10.90908,37.74562v117.53026c0,17.75131-1.82383,29.72525-12.26844,38.84447-10.90908,9.5157-19.32594,11.55478-41.99371,11.55478h-32.5573V3.28518h32.5573ZM296.93522,193.74649c3.46643,0,7.13676.04531,9.28915-.66836,7.18209-2.39025,7.9524-9.23249,7.9524-21.82948V53.70707c0-15.40638-1.81252-20.54938-8.84733-22.12401-2.83205-.63438-8.2243-.40782-12.86884-.40782h-3.94223v162.5599h8.40555l.0113.01134Z" class="cls-1"></path>
  <path d="M420.12958,3.28518c22.98496,0,32.444,2.67346,43.35307,12.67628,10.44462,9.58367,10.90908,20.61736,10.90908,37.74562v117.53026c0,17.75131-1.82383,29.72525-12.25714,38.84447-10.92042,9.5157-19.32594,11.55478-42.00505,11.55478h-32.54598V3.28518h32.54601ZM426.564,193.74649c3.47777,0,7.13676.04531,9.28915-.66836,7.19342-2.39025,7.96374-9.23249,7.96374-21.82948V53.70707c0-15.40638-1.82383-20.54938-8.84733-22.12401-2.83205-.63438-8.2356-.40782-12.88018-.40782h-3.94223v162.5599h8.40555l.0113.01134Z" class="cls-1"></path>
  <path d="M1009.58202,3.28518c22.98493,0,32.44403,2.67346,43.35311,12.67628,10.44458,9.58367,10.90908,20.61736,10.90908,37.74562v117.53026c0,17.75131-1.82383,29.72525-12.25714,38.84447-10.92042,9.5157-19.32594,11.55478-42.00505,11.55478h-32.54595V3.28518h32.54595ZM1016.02778,193.74649c3.47777,0,7.12542.04531,9.30049-.66836,7.18212-2.39025,7.95243-9.23249,7.95243-21.82948V53.70707c0-15.40638-1.82383-20.54938-8.84733-22.12401-2.83205-.63438-8.23564-.40782-12.88018-.40782h-3.9422v162.5599h8.40552l.01127.01134Z" class="cls-1"></path>
  <polygon points="804.46199 221.64789 773.88714 221.64789 742.72321 117.05446 742.72321 221.64789 712.13702 221.64789 712.13702 3.28518 738.45245 3.28518 773.88714 121.92559 773.88714 3.28518 804.46199 3.28518 804.46199 221.64789" class="cls-1"></polygon>
  <polygon points="28.60375 31.76431 0 31.76431 0 3.28518 89.13041 3.28518 89.13041 31.76431 59.18993 31.76431 59.18993 221.64789 28.60375 221.64789 28.60375 31.76431" class="cls-1"></polygon>
  <path d="M608.57448,158.4591v8.17897c0,22.58847,3.95354,29.79321,15.80288,29.79321,9.20985,0,13.83178-7.53326,13.83178-21.6029s-3.62504-22.90566-18.74819-42.88863l-15.12314-22.24862c-18.75952-28.16195-25.00138-43.2398-25.00138-62.54308C579.33642,18.35173,596.78191.01134,624.38877.01134c20.73062,0,35.85383,11.79267,40.13586,31.75299,1.64261,8.1903,1.64261,9.45906,1.64261,27.4596h-29.92913c0-11.13564-.33983-12.4044-.98555-16.98099-.99689-8.82468-5.92464-13.75245-12.83489-13.75245-8.21296,0-12.82355,7.20475-12.82355,20.30016s1.31404,16.36927,21.70483,46.79687l15.4517,22.2826c14.14893,20.61735,22.04474,42.86597,22.04474,61.53488,0,29.1475-16.12003,45.50545-44.74646,45.50545-16.43725,0-27.94669-5.23363-36.48821-16.6978-7.23875-9.83288-9.53834-18.98609-9.53834-37.98351,0-4.56527,0-6.53639.32849-11.78134h30.24635l-.02275.0113Z" class="cls-1"></path>
  <polygon points="1184.7163 3.2965 1184.7163 31.75299 1138.66707 31.75299 1138.66707 92.97067 1168.91335 92.97067 1168.91335 121.47246 1138.66707 121.47246 1138.66707 193.15742 1184.7163 193.15742 1184.7163 221.65921 1108.06954 221.65921 1108.06954 3.2965 1184.7163 3.2965" class="cls-1"></polygon>
  <path d="M1257.99847,3.27385c24.67289,0,35.85383,3.95355,44.73512,15.39505,7.88439,10.15008,11.50951,24.86544,11.50951,45.50544,0,27.17639-2.96799,36.99796-15.46304,53.05004l21.37634,104.42351h-32.88585l-17.77391-93.96756c-5.25631.98555-6.24186.98555-10.84104,1.3254v92.64216h-30.59753V3.27385h29.94054-.00014ZM1262.93755,98.21563c9.86683,0,15.46304-2.2883,18.40835-7.85045,2.311-4.25941,2.96799-9.49304,2.96799-29.47602,0-23.56269-4.2821-29.13618-21.37634-29.13618h-4.27076v66.46265h4.27076Z" class="cls-1"></path>
  <polygon points="841.10881 3.27385 872.09146 3.27385 891.20215 68.38843 910.32419 3.27385 940.37791 3.27385 905.01125 122.92248 905.01125 221.61391 876.48681 221.61391 876.48681 122.92248 841.10881 3.27385" class="cls-1"></polygon>
</svg>