<svg xmlns="http://www.w3.org/2000/svg" width="79" height="35" fill="none" viewBox="0 0 79 35"><g fill="#000" fill-rule="evenodd" clip-path="url(#a)" clip-rule="evenodd"><path d="M57.843.795h1.059a1 1 0 0 0 .044.098q.255.039.485.154.332.202.43.58.066.237.11.482.028 1.013-.01 2.025.01.578.1 1.15a8.3 8.3 0 0 0 .187 1.543.23.23 0 0 0 .033.208q.086.546.176 1.073.032 1.121.044 2.234l.133.876a49 49 0 0 1-.1 3.427q.032.542.078 1.084a.16.16 0 0 0 .165.032q.64-.419 1.39-.569a12 12 0 0 1 1.698-.613q.49-.236.993-.438.975-.22 1.93-.493.194.014.375 0l.43.099q.628.265 1.236.57.204.191.463.306.28.265.43.624.09.201.155.416.11.643.265 1.27.056.28.077.57a.2.2 0 0 1-.022.065q.09.202.044.416.046.304.055.613.022.58 0 1.16-.12 1.224-.353 2.453-.158.745-.463 1.445a6.4 6.4 0 0 1-.265.942q-.373.663-.728 1.335-.645.773-1.423 1.413a9.2 9.2 0 0 1-2.713 1.062.1.1 0 0 1-.033-.022 6.6 6.6 0 0 1-1.842.328 1.6 1.6 0 0 0-.552.044.1.1 0 0 1-.033-.022q-.47.12-.96.12-.163.06-.33.11a.24.24 0 0 0-.089.12q.022.18.022.362a3.3 3.3 0 0 1-.044.58 7.45 7.45 0 0 1-.364 3.307q-.05.315-.088.635-.2.621-.85.492a3.6 3.6 0 0 1-1.323-.481 25 25 0 0 1-.772-.241 1.8 1.8 0 0 0-.507-.307.45.45 0 0 1-.155-.306q.054-.488.033-.975a1 1 0 0 1 .055-.23 2 2 0 0 0-.022-.35q.114-1.042.221-2.091-.023-.06.022-.12-.035-.05.011-.1.063-.696.199-1.379.047-1.29.044-2.584a36 36 0 0 0-.088-.985.43.43 0 0 0-.287-.219l-.375.022-.21-.044a9 9 0 0 1-1.048 0l-.375.044q-.607-.013-1.246-.022l-.066.033-.232.01a10 10 0 0 1-.507-.043.23.23 0 0 0-.133.088 1.2 1.2 0 0 0 0 .328q.058.137.066.285.028.25.045.503.104.38.176.789.006.413.033.82a.2.2 0 0 0-.022.088q.045.156.044.318a89 89 0 0 1-.099 1.97q-.136 1.372-1.445.887a16 16 0 0 1-1.213-.503 1.86 1.86 0 0 1-.894-1.281 10 10 0 0 1 .144-1.916q-.007-.312-.011-.646l-.11-.766a9 9 0 0 1-.155-.657.74.74 0 0 0-.21-.34 4 4 0 0 0-1.07.055 7 7 0 0 0-.573-.022.9.9 0 0 0-.353.175q-.24.445-.463.898-.718.974-1.324 2.015-.327.423-.728.788a9 9 0 0 0-.42.613q-.276.584-.573 1.16l-.375.504a3.6 3.6 0 0 1-.739 1.018 1.4 1.4 0 0 1-.496.208 2 2 0 0 1-.452-.076 35 35 0 0 0-1.434-.46 2.2 2.2 0 0 1-.794-.46 3.45 3.45 0 0 1-1.423-1.325 5.6 5.6 0 0 1-.463-1.16q-.135-.594-.287-1.183a2.9 2.9 0 0 1-.287-1.007l-.022-1.204a.45.45 0 0 0-.386-.362q-.233-.041-.463-.076a3 3 0 0 1-.497.066.9.9 0 0 0-.397.021 24 24 0 0 1-.584-.01.2.2 0 0 1-.056-.033 3 3 0 0 1-.43.021q-.206-.028-.408-.065a1 1 0 0 0-.232.033.2.2 0 0 0-.044.054q.105.24.298.416.117.162.22.329.171.388.21.81v1.423a2.7 2.7 0 0 0-.099.46 8.2 8.2 0 0 1-.441 2.102 2.4 2.4 0 0 1-.54.778l-.42.372q-.45.347-.86.744a5.9 5.9 0 0 1-2.052 1.008 4 4 0 0 1-.728.284 6 6 0 0 0-1.445.23.1.1 0 0 1-.044-.022q-.141.044-.287.066a6 6 0 0 1-.43-.01 5.5 5.5 0 0 1-.86-.154l-2.03-.657a2.75 2.75 0 0 0-1.091-.405l-.96-.274q-.884-.286-1.202-1.15a2.2 2.2 0 0 1 .022-1.707q-.003-.834.695-1.281.37-.124.739-.187.12.045.242 0a.6.6 0 0 1 .463.176q.186.312.42.59l.132.264.276.273q.234.14.485.241.91.286 1.809.58a.1.1 0 0 0 .033-.022q.274.069.552.132.41-.012.838 0 .444-.09.871-.252a8 8 0 0 1 1.39-.591 1.55 1.55 0 0 0 .662-.515q.207-.29.43-.569.217-.289.309-.635.06-.454-.066-.898a3.2 3.2 0 0 0-.938-1.346 33 33 0 0 0-.993-.57 2 2 0 0 1-.253-.076 71 71 0 0 1-3.177 0 2 2 0 0 1-.176.043q-.606.025-1.214 0l-.187.044a10 10 0 0 0-1.125-.01q-.564.03-1.136.076-.659-.02-1.302-.022-.843.063-1.688.153a28 28 0 0 1-1.014-.033 7 7 0 0 1-.475-.054q-.298.028-.595 0a2.4 2.4 0 0 1-.883 0q-1.005.017-2.073 0a1 1 0 0 1-.276.054q-.332.015-.662.055h-.573a.38.38 0 0 0-.276.263 3 3 0 0 1-.033.263l.187 2.124q.042.558.055 1.116-.06 1.352-.11 2.705.055 1.056.055 2.113a10 10 0 0 0-.176.985.97.97 0 0 1-.651.69q-.289.06-.562.098a4 4 0 0 1-.784-.153 2.5 2.5 0 0 1-1.224-.613 1.46 1.46 0 0 1-.309-.832 5 5 0 0 1-.044-.964q.117-.504.165-1.018a.5.5 0 0 1-.022-.098q.027-.58.034-1.16.052-.21.055-.428a6 6 0 0 1-.055-.58l-.023-2.365-.077-.985q-.006-.212.044-.416-.045-.405-.077-.81a.42.42 0 0 0-.309-.132 9 9 0 0 0-.75.11 41 41 0 0 0-1.72 0q-.197-.015-.386-.066-.46-.002-.927.01-.531.108-1.092.143-1.6-.072-2.449-1.401-.103-.22-.154-.46-.015-.041-.055-.044v-.679a.1.1 0 0 0 .055-.065q.21-.93 1.092-1.303.187-.003.364-.055.014.015.033.022a1.5 1.5 0 0 0 .33-.077 6.7 6.7 0 0 0 1.479-.854 25 25 0 0 0 1.676-1.05q.737-.366 1.456-.767.41-.285.762-.646a1 1 0 0 1 .088-.153l.033-.208-.066-.69a6 6 0 0 0 .055-.745.5.5 0 0 1 .044-.153q.022-1.17 0-2.343-.06-.698-.077-1.401a2.05 2.05 0 0 0-.055-.854l-.022-.68a2.6 2.6 0 0 1-.078-.733.6.6 0 0 1-.055-.208 30 30 0 0 0-.132-2.014 3.4 3.4 0 0 1-.155-1.095q.23-.48.673-.777a1 1 0 0 0 .287-.176q.971-.438 1.985-.766a.96.96 0 0 1 .618 0q.128.16.166.361.09 1.075.22 2.146a1 1 0 0 1-.01.35.9.9 0 0 1 .054.285q.057.58.066 1.16a.3.3 0 0 1 .011.187q.07 1.858.188 3.712.1.486.154.963v1.16q.069.683.519.165.226-.162.463-.307a.8.8 0 0 1 .42-.263q.475-.395.97-.766.4-.183.728-.482a1 1 0 0 1 .198-.087q.76-.622 1.478-1.292a6 6 0 0 1 1.589-.876q.546-.238 1.037.087.357.268.672.58.163.27.31.548a.9.9 0 0 1 0 .548q-.309.392-.552.832l-.353.438q-.21.221-.452.405a14 14 0 0 1-1.545.985q-.228.24-.551.329-.303.221-.64.394-.585.455-1.235.81-.8.567-1.655 1.05a21 21 0 0 0-1.312.91.9.9 0 0 0-.078.448q.044.5.078.997l.022 1.095a1 1 0 0 0 .077.098q.26.004.507.077.18-.032.375-.055 1.28.004 2.56-.022a.5.5 0 0 0 .12-.033q.18.015.365 0 .146.005.286.044h1.346q.065-.056.132-.022 1.05-.033 1.887-.044.418.032.827.066a1 1 0 0 0 .32-.044q.303.035.64.044a8 8 0 0 0 .76-.066q.027.015.056.022a.9.9 0 0 1 .297-.054 28 28 0 0 0 1.567-.066q.245-.052.485-.033.195-.036.386-.066.06.035.133.044.16-.006.32-.022.196.106.33-.065a.2.2 0 0 0-.022-.066q-.427-.353-.827-.745a20 20 0 0 1-1.258-1.489 3.7 3.7 0 0 1-.573-1.182 20 20 0 0 0-.816-1.577 1.6 1.6 0 0 1-.155-.525 13 13 0 0 0-.397-1.336 3.7 3.7 0 0 1-.132-1.05q.072-.387.353-.658a4.14 4.14 0 0 1 2.614-1.193q.585-.143 1.17-.296.064.013.132.022.663-.18 1.334-.328.037.004.077.022l.11-.055.574-.022a9 9 0 0 1 1.048-.142l.11.021q.421-.025.839-.087.257.012.507 0 .573.05 1.147.088l.066-.022q.576.082 1.092.295.129.117.232.252.146.216.243.46a3.66 3.66 0 0 1-.85 2.266 2.5 2.5 0 0 1-.397.197 1.3 1.3 0 0 1-.397.077 15 15 0 0 0-.618-.055 5 5 0 0 0-.507-.153 3 3 0 0 0-.518-.208.3.3 0 0 0-.133.022q-.339-.067-.684-.11-.255.05-.518.055a3 3 0 0 0-.165.055 1 1 0 0 0-.221-.022 1.3 1.3 0 0 1-.452.076q-1.06.192-2.074.526a.5.5 0 0 0-.287.449q.108.575.386 1.095.24.356.464.722.131.404.353.767a8.8 8.8 0 0 0 1.797 2.244q.699.582 1.434 1.117.371.368.817.635.141.025.275.076.294-.01.53 0 .153-.023.309-.043.337.033.673 0a.4.4 0 0 1 .11.043 39 39 0 0 0 1.246-.087q.315.033.629.01.046-.012.088-.032.716.084 1.434 0 .031.004.055.022a3 3 0 0 1 .695-.022q.24-.038.463-.12a1 1 0 0 0 .056-.099q.087-.642.22-1.292.295-.836.309-1.73.03-.137.088-.262 0-.262.055-.515a1.8 1.8 0 0 1 .066-.646.4.4 0 0 1-.022-.153 3.2 3.2 0 0 1 .32-.81.9.9 0 0 1 .497-.34q.408-.064.805-.12h.441q.416.054.827.12.3.098.552.285A.7.7 0 0 1 41 15.4q.002.22.011.438a1.1 1.1 0 0 0 0 .613q-.188.81-.254 1.642-.112.42-.154.854-.175.566-.22 1.16-.05.054-.012.121-.017.227-.066.45.05.168.232.174.398-.021.794.044a8 8 0 0 0 .772-.044q.407.036.816 0 .28.081.574.066.577-.013 1.158-.01a.6.6 0 0 0 .166-.1q.075-.17.132-.35.734-1.272.882-2.737.106-.282.199-.57.173-.72.419-1.422.372-.78.64-1.599a8 8 0 0 0 .066-1.073q.075-.236.22-.438a6 6 0 0 1 .63-.624q.463-.288 1.003-.383.312.032.618 0 .297.09.584.208.456.34.607.887.096.345.154.7a49 49 0 0 1 .133 1.511l.132.613.022.329q.055.055.011.12.024.18.033.362.118.42.177.854.061.66.165 1.313a.1.1 0 0 1-.022.033q.047.309.055.624.082.32.177.635.064.413.066.832l.066.329q1.161-.03 2.327 0a19 19 0 0 1 2.074-.022q.678 0 .496-.657-.007-1.415.11-2.825l.023-2.43q.138-.87.154-1.752l.022-2.321a1 1 0 0 0 .033-.11 1.4 1.4 0 0 1 0-.394q-.033-.327-.055-.657a8 8 0 0 1-.1-.427q.016-.014.023-.032-.027-.405-.033-.81a30 30 0 0 0-.353-2.234 60 60 0 0 0-.121-.974.5.5 0 0 0 .022-.143q-.055-.666-.055-1.336-.104-.701-.199-1.423-.05-.592.22-1.117l.122-.12q.524-.237 1.103-.285a.2.2 0 0 0 .044-.098m4.544 23.627q-.01-.045-.022 0-.046-.034-.088.021a.1.1 0 0 1-.033-.021.52.52 0 0 1-.342.043.7.7 0 0 0-.176.066.6.6 0 0 1-.21-.022 3 3 0 0 0-.562.186.3.3 0 0 1-.188-.01.15.15 0 0 0-.066-.11 66 66 0 0 1 0-2.409.2.2 0 0 1 .044-.066l.022-1.138a2 2 0 0 0 .066-.504.7.7 0 0 0 .077-.131q.127-.099.265-.186a.3.3 0 0 0 .144-.077l.022.022a.6.6 0 0 1 .143-.12q.563-.242 1.103-.515a.5.5 0 0 1 .243-.12q.12-.054.231-.12.012.01.022.021.244-.228.585-.274.343-.187.728-.284a.2.2 0 0 1 .165-.055q.044-.082.144-.077.032-.058.077-.033.416-.2.86-.328.067.03.122-.033a.6.6 0 0 0 .275-.033l.022.022a.12.12 0 0 1 .078-.066q.302.094.562.307.007.075.033.142-.045.065.022.132a.8.8 0 0 0-.022.24q.025.06.044.121a.23.23 0 0 0 0 .197q-.078.098-.044.186-.03.132-.066.263l.022.022a.3.3 0 0 0-.066.131.3.3 0 0 0 .022.132.14.14 0 0 1-.055.076 3 3 0 0 0-.088.482q-.069.059-.033.131-.075.285-.155.548a.17.17 0 0 1-.033.197l-.022.219a4.8 4.8 0 0 1-.816 1.357.2.2 0 0 0-.033.11.07.07 0 0 0-.066.022l-.199.208a7.7 7.7 0 0 1-1.963.974.2.2 0 0 0-.177.055 9 9 0 0 0-.618.099m-21.398-.176q.17.01.32.088a.3.3 0 0 1 .22 0 .25.25 0 0 1 .21-.066.32.32 0 0 1 .232.066h.265a.5.5 0 0 0 .077-.055 2 2 0 0 0 .253-.033q.078.045.155 0 .038.017.055.055a1.4 1.4 0 0 1-.375.46l.022.022q-.094.087-.177.186a5 5 0 0 0-.209.328 3 3 0 0 0-.298.285q-.137.202-.265.405.02.052-.044.088l.022.022a2 2 0 0 1-.53.59.3.3 0 0 0-.076.034q-.034-.038-.044.022a2 2 0 0 1-.144-.055 1 1 0 0 0-.1-.164 24 24 0 0 1-.198-1.292.5.5 0 0 1-.066-.241q-.069-.059-.033-.131a5 5 0 0 0-.066-.285.7.7 0 0 1 .11-.296q.348-.005.684-.033" opacity=".996"/><path d="M57.843.795a.2.2 0 0 1-.044.098 3.3 3.3 0 0 0-1.103.285l-.121.12q-.27.525-.22 1.117.094.722.198 1.424 0 .669.055 1.335 0 .074-.022.143.064.485.121.974.218 1.11.353 2.233.006.408.033.81a.1.1 0 0 1-.022.034q.043.213.1.427.021.329.054.656a1.4 1.4 0 0 0 0 .395 1 1 0 0 1-.033.109l-.022 2.321q-.015.88-.154 1.752l-.022 2.43q-.119 1.41-.11 2.825.18.657-.497.657a19 19 0 0 0-2.074.022q-1.166-.03-2.327 0l-.066-.328a5.6 5.6 0 0 0-.066-.833q-.095-.315-.177-.635a5 5 0 0 0-.055-.624.1.1 0 0 0 .022-.033 21 21 0 0 1-.165-1.313 6 6 0 0 0-.177-.854 5 5 0 0 0-.033-.362q.045-.065-.01-.12l-.023-.328-.132-.614a50 50 0 0 0-.133-1.51 7 7 0 0 0-.154-.701 1.6 1.6 0 0 0-.607-.887 7 7 0 0 0-.584-.208q-.306.032-.618 0a2.8 2.8 0 0 0-1.004.383 6 6 0 0 0-.628.624 1.5 1.5 0 0 0-.221.438q.003.54-.066 1.073a13 13 0 0 1-.64 1.599q-.245.702-.42 1.423-.09.287-.198.57-.148 1.464-.882 2.736-.057.18-.132.35a.6.6 0 0 1-.166.1q-.58-.003-1.158.01a1.8 1.8 0 0 1-.574-.066 5 5 0 0 1-.816 0 8 8 0 0 1-.772.044 3.6 3.6 0 0 0-.794-.044q-.184-.004-.232-.175.05-.221.066-.449-.038-.068.011-.12a5.3 5.3 0 0 1 .221-1.16q.042-.435.155-.855.064-.83.253-1.642a1.1 1.1 0 0 1 0-.613q-.01-.217-.01-.438a.7.7 0 0 0-.122-.164 2 2 0 0 0-.552-.285q-.411-.066-.827-.12h-.441a47 47 0 0 0-.805.12.9.9 0 0 0-.497.34q-.213.381-.32.81a.4.4 0 0 0 .023.153 1.8 1.8 0 0 0-.067.646 2.4 2.4 0 0 0-.055.515 1.3 1.3 0 0 0-.088.262 5.4 5.4 0 0 1-.309 1.73q-.133.65-.22 1.292a1 1 0 0 1-.056.099q-.225.082-.463.12a3 3 0 0 0-.695.022.1.1 0 0 0-.055-.022 6 6 0 0 1-1.434 0 1 1 0 0 1-.088.033q-.315.022-.629-.011-.626.054-1.246.088a.4.4 0 0 0-.11-.044 3.4 3.4 0 0 1-.673 0q-.156.02-.31.044a6 6 0 0 0-.529 0 1.5 1.5 0 0 0-.275-.077 4.3 4.3 0 0 1-.817-.635q-.735-.535-1.434-1.117a8.9 8.9 0 0 1-1.797-2.244 3.6 3.6 0 0 1-.353-.767 18 18 0 0 0-.464-.722 3.8 3.8 0 0 1-.386-1.095.5.5 0 0 1 .287-.449 15 15 0 0 1 2.074-.526q.234.004.452-.076a1 1 0 0 1 .22.022q.082-.03.166-.055.263-.005.518-.055.345.044.684.11a.3.3 0 0 1 .133-.022q.27.082.518.208.256.063.508.153.306.02.617.055.195-.004.397-.077a2.5 2.5 0 0 0 .397-.197q.81-.99.85-2.266a2.4 2.4 0 0 0-.243-.46 2 2 0 0 0-.232-.252 4.6 4.6 0 0 0-1.092-.295l-.066.021a51 51 0 0 1-1.147-.087 5 5 0 0 1-.507 0q-.417.061-.839.088l-.11-.022q-.526.04-1.048.142l-.573.022-.11.055a.3.3 0 0 0-.078-.022q-.67.147-1.334.328a2 2 0 0 1-.133-.022q-.585.153-1.169.296a4.14 4.14 0 0 0-2.614 1.193q-.28.271-.353.657-.01.534.132 1.051.235.657.397 1.336.03.276.155.526.442.77.816 1.576.18.644.574 1.182.591.774 1.257 1.49.4.39.827.744.016.03.022.066-.134.171-.33.065-.16.016-.32.022a.4.4 0 0 1-.133-.044q-.192.03-.386.066a1.7 1.7 0 0 0-.485.033q-.783.056-1.566.066a.9.9 0 0 0-.298.054.3.3 0 0 1-.055-.022 8 8 0 0 1-.762.066 8 8 0 0 1-.64-.044 1 1 0 0 1-.32.044 84 84 0 0 0-.826-.066 94 94 0 0 0-1.886.044q-.069-.034-.133.022h-1.346a1.2 1.2 0 0 0-.286-.044q-.185.015-.364 0a.5.5 0 0 1-.122.033q-1.28.027-2.559.022-.196.023-.375.055a2 2 0 0 0-.507-.077 1 1 0 0 1-.077-.098l-.022-1.095q-.033-.496-.078-.996a.9.9 0 0 1 .078-.45q.637-.479 1.312-.908.855-.484 1.655-1.051a9 9 0 0 0 1.235-.81q.337-.173.64-.394.323-.09.551-.329a14 14 0 0 0 1.545-.985q.241-.184.452-.405l.353-.438q.243-.44.551-.832a.9.9 0 0 0 0-.548 10 10 0 0 0-.308-.547 6 6 0 0 0-.673-.58 1.03 1.03 0 0 0-1.037-.088 6 6 0 0 0-1.588.876q-.72.67-1.478 1.292a1 1 0 0 0-.2.087q-.326.3-.727.482-.495.371-.97.766a.8.8 0 0 0-.42.263 8 8 0 0 0-.463.307q-.45.517-.518-.164v-1.161a11 11 0 0 0-.155-.963 141 141 0 0 1-.187-3.712.3.3 0 0 0-.011-.186 15 15 0 0 0-.067-1.16.9.9 0 0 0-.055-.285 1 1 0 0 0 .011-.35q-.13-1.072-.22-2.147a.8.8 0 0 0-.166-.36.96.96 0 0 0-.618 0q-1.014.327-1.985.766a1 1 0 0 1-.287.175q-.443.297-.673.777-.011.566.155 1.095.1 1.005.132 2.014a.6.6 0 0 0 .055.208q-.015.37.078.734l.022.679q.117.42.055.854.015.704.077 1.401.022 1.172 0 2.343a.5.5 0 0 0-.044.153q-.004.378-.055.745.03.345.066.69-.014.105-.033.208a1 1 0 0 0-.088.153 5.3 5.3 0 0 1-.761.646q-.72.401-1.456.766-.816.56-1.677 1.051a6.7 6.7 0 0 1-1.478.854 1.5 1.5 0 0 1-.33.077.1.1 0 0 1-.034-.022q-.178.052-.364.055-.882.372-1.092 1.303a.1.1 0 0 1-.055.065.8.8 0 0 1 .077-.35l.22-.438a.9.9 0 0 0 .188-.219 3 3 0 0 0 .265-.23q.15-.113.33-.175.292-.017.574-.066a4.9 4.9 0 0 0 1.412-.733l1.875-1.15a.6.6 0 0 1 .11-.11l1.148-.569q.3-.222.617-.416.298-.224.486-.536.045-.219 0-.438a.1.1 0 0 1-.033-.044 19 19 0 0 0-.011-.449.3.3 0 0 1 .055-.208l.022-.613a.1.1 0 0 0 .033-.065.18.18 0 0 1 0-.121l-.044-.044q-.02-.051.044-.087a54 54 0 0 1-.011-1.982 32 32 0 0 1-.055-1.182.1.1 0 0 1-.033-.044 2 2 0 0 1 0-.438q.11-.164-.011-.318a.32.32 0 0 0-.067-.263l.023-.021q-.028-.375-.034-.756a10 10 0 0 0-.099-.547q.018-.084.022-.164a1.3 1.3 0 0 1-.066-.241q.03-.244.022-.482a.4.4 0 0 0-.033-.077q-.006-.413-.033-.82.047-.104-.033-.187l-.022-.372a.16.16 0 0 1-.044-.066.6.6 0 0 0-.033-.142l.022-.022a2 2 0 0 0-.11-.329l.021-.065q-.156-.486.199-.843a.2.2 0 0 0 .033-.088 3.43 3.43 0 0 1 1.533-.887q.226-.115.463-.219l.53-.153q.032-.058.077-.033.42-.182.783-.044a.64.64 0 0 1 .177.35q.027.176.033.351l.044.044.022.635q.03.027.044.066.013.514.1 1.018-.035.05.01.098.035.924.089 1.84l.044.043.022 1.402q.065.929.11 1.861.069.61.133 1.292.013.039.044.066.004.744.033 1.489.018.08.066.142a.5.5 0 0 0 .198-.044q.195-.192.409-.361l.022.022a1.8 1.8 0 0 0 .386-.307 1 1 0 0 1 .22-.087q.138-.113.287-.208.1-.12.265-.22a.3.3 0 0 1 .066-.087q.17-.118.353-.219l-.022-.022q.387-.133.662-.438.423-.174.75-.547.246-.204.507-.394a5 5 0 0 1 2.504-1.478h.265q.198.076.386.186.336.257.65.536l.375.591q.045.15.078.307a1 1 0 0 1-.078.329q-.315.406-.562.853-.268.324-.552.635-.868.69-1.83 1.216a1.24 1.24 0 0 1-.53.306 5.5 5.5 0 0 1-.684.438 1 1 0 0 1-.176.154q-.9.544-1.787 1.15-1.05.6-2.019 1.313l-.022-.022a.5.5 0 0 0-.198.285q-.007.521.055 1.04a.21.21 0 0 0 .033.186l.022 1.117q.045.05.11.065.159-.015.287-.022.186.13.375 0 .492.032.993 0 .057.064.132 0 .746.007 1.478.022.09-.027.177-.065.26.018.518 0 .172.035.342.065.47-.024.927 0a.34.34 0 0 0 .132-.065l.022.043q.075.018.143-.043 1.266.009 2.537 0 .257.126.519 0 .154.016.297 0a1 1 0 0 0 .1.065h.551a1 1 0 0 1 .144-.054q.187-.009.375-.033.084.036.143-.044l.022.044a.08.08 0 0 1 .055-.044q.411.002.828.022l.242-.066.11.022q.044-.078.067 0l.022-.044q.021.045.044 0 .023.088.044 0 .023.045.044 0 .023.088.044 0 .023.045.044 0 .023.088.044 0 .023.045.044 0 .021.082.056 0 .174-.021.342 0 .057-.063.132 0 .05-.075.11 0a.24.24 0 0 1 .1-.065q.361.035.716 0l.11.065a.5.5 0 0 0 .144-.076 1 1 0 0 0-.165-.186l-.022.022a.1.1 0 0 1-.011-.066q-.075-.04-.155-.077a7 7 0 0 1-.948-.996 7 7 0 0 1-1.158-1.533 1 1 0 0 0-.11-.24 2.8 2.8 0 0 0-.387-.888l.022-.021-.088-.088q.025-.059-.011-.12a1.3 1.3 0 0 1-.232-.439 7 7 0 0 1-.342-.635 1.2 1.2 0 0 0-.077-.306.1.1 0 0 1 .022-.033 11 11 0 0 1-.275-.93.4.4 0 0 0-.056-.088.1.1 0 0 1 .022-.033.6.6 0 0 1-.033-.142l-.044-.044a.5.5 0 0 0-.077-.274q.05-.084-.033-.142a.9.9 0 0 0-.077-.383.4.4 0 0 0 0-.263.5.5 0 0 0 .077-.252q.29-.563.85-.909l-.023-.021q.164-.105.353-.241.293-.148.596-.274a.1.1 0 0 0 .033-.044.22.22 0 0 0 .198-.066l.022.022q.2-.073.409-.131a1 1 0 0 1 .099.022q.49-.066.992-.22.069.024.122-.043a.28.28 0 0 0 .198-.044.1.1 0 0 1 .034.022q.103-.054.22-.087.022.078.066 0 .033.043.066 0l.023.043a.5.5 0 0 0 .099-.054.7.7 0 0 0 .298-.077l.066.022q.138-.063.287-.11a.2.2 0 0 1 .154 0q.118-.07.22-.043a.43.43 0 0 1 .287-.044.15.15 0 0 1 .078-.055 4 4 0 0 0 .849-.077.16.16 0 0 0 .176-.043l.022.021a2 2 0 0 1 .298-.032q.064-.04.122-.011a.2.2 0 0 1 .055-.044q.321-.002.65.022a.3.3 0 0 0 .089-.066q.02.082.055 0 .045.046.055-.022.043.08.066 0 .044.08.066 0 .023.088.044 0 .306.037.607 0 .033.015.055.044.184-.015.364-.022.054.081.1 0 .027.054.066.022l.154.044q.265.01.54-.022.024.062.067.022.123.055.265.055.046.077.12.032.143.062.299.077.19.058.353.175.24.307.43.646.023.219 0 .438a6 6 0 0 1-.133.635q-.201.39-.353.81-.199.247-.386.504a.6.6 0 0 0-.187.131.1.1 0 0 0-.033-.021q-.114.054-.22.109a1.3 1.3 0 0 0-.232.066q-.06-.032-.11.021a.11.11 0 0 0-.133 0l-.022-.043a2 2 0 0 0-.32 0 .7.7 0 0 1-.143-.044.1.1 0 0 1-.034.022 4 4 0 0 0-.551-.186 2 2 0 0 0-.353-.175q-.205.01-.408.01a.6.6 0 0 0-.375-.065q-.08-.106-.177-.022-.059-.032-.11.022a4 4 0 0 0-.32 0 6 6 0 0 1-.231.066.7.7 0 0 0-.188-.022.16.16 0 0 0-.121.065l-.022-.022a3 3 0 0 1-.342.033.15.15 0 0 0-.077.055.3.3 0 0 0-.089-.022.5.5 0 0 1-.264.088 8 8 0 0 0-.287 0q-.32.115-.65.186a.1.1 0 0 0-.056.054l-.066-.021a1.3 1.3 0 0 1-.386.098q-.178.072-.331.186a.7.7 0 0 0-.088.285q.041.267.12.525.232.613.64 1.14.177.49.442.94.489.794 1.08 1.512.98 1.005 2.13 1.784.324.334.706.591l.341.12.023-.043a.8.8 0 0 0 .22.044.09.09 0 0 1 .077-.044q.188.033.386.022a1 1 0 0 1 .133-.044q.335.003.65 0 .074.02.144.044h.353a.1.1 0 0 1 .066-.044q.274-.009.507 0 .045-.087.089 0 .062-.017.143-.044.105.011.22.011.045.054.089-.01.034.081.055 0 .023.043.044 0 .023.087.044 0 .023.043.044 0 .023.087.044 0 .023.043.045 0 .021.087.044 0l.022.043a.24.24 0 0 1 .132-.044q.189.009.364 0 .034.082.055 0 .023.088.044 0 .023.045.044 0 .023.088.045 0 .021.045.044 0 .023.088.044 0 .023.045.044 0 .023.088.044 0 .023.045.044 0 .023.088.044 0 .023.045.044 0 .023.088.045 0 .021.088.044 0l.022.044a.15.15 0 0 1 .1-.044q.09.016.164.022l.11-.044q.187.015.376.022l.022-.043q.052-.019.088.043l.044-.043q.033.044.067 0 .021.087.044 0 .06.075.11 0 .077.063.154-.022a.3.3 0 0 1 .089.021.9.9 0 0 0 .275-.076 1 1 0 0 0 .044-.099 1 1 0 0 1-.022-.142.15.15 0 0 0 .056-.077q.035-.276.088-.547.084-.069.033-.164l.088-.35-.022-.023q.05-.105.088-.218-.037-.034.022-.044l-.022-.022a.46.46 0 0 0 .055-.208l.044-.044a.8.8 0 0 1 .078-.34.8.8 0 0 0-.022-.273.6.6 0 0 1 .044-.11l.044-.481q.067-.064.022-.143a.2.2 0 0 1 .066-.11l-.044-.021a.11.11 0 0 0 0-.131l.033-.033q.04-.203.011-.405.01-.274.11-.526a.47.47 0 0 1 .078-.427q.07-.52.496-.821.164-.064.32-.142a.28.28 0 0 0 .198-.022q.026.004.044.022a.1.1 0 0 1 .034-.044q.15.027.32-.022.116.045.242-.022.129.009.254 0 .032.015.055.044a1.3 1.3 0 0 1 .276-.022q.148.042.298.066.113-.008.22 0a.23.23 0 0 1 .133.087.3.3 0 0 1 .11-.022q.206.13.408.263l.143.153q.032.457-.033.91a.73.73 0 0 1 .033.382q-.048.195-.066.394a.2.2 0 0 0-.044.066.64.64 0 0 1-.066.307l-.022.482q-.042.135-.044.284a.2.2 0 0 1-.044.066q-.061.382-.089.766a2 2 0 0 1-.154.46 20 20 0 0 0-.133 1.292q.056-.006.11.044.034-.045.067 0l.044-.044q.096.015.199 0a.5.5 0 0 1 .077.055q.184.006.364.033a71 71 0 0 1 1.853-.022.3.3 0 0 1 .11.065l.044-.043q.06.05.144.043a.54.54 0 0 1 .231 0l.089-.043q.021.044.044 0 .022.087.044 0 .049.075.11 0 .023.087.044 0 .062.075.11 0 .023.087.045 0l.066.043q.055.006.11-.043.023.044.044 0 .023.087.044 0l.044.043q.047-.03.1 0a2 2 0 0 0 .198-.065.44.44 0 0 0 .144-.285l.22-.394q.257-.619.497-1.237a.1.1 0 0 0-.022-.044q.078-.244.143-.493l.022-.372a.2.2 0 0 0 .044-.088l.022-.219q.057-.168.144-.339l-.022-.022q.108-.332.21-.668a1 1 0 0 1 .032-.164l-.022-.022a.2.2 0 0 0 .055-.033q.025-.208.1-.405-.037-.037.022-.055.098-.294.242-.536l-.022-.022q.077-.175.177-.328a.1.1 0 0 1-.022-.033q.135-.25.242-.515l-.044-.022a.8.8 0 0 0 .122-.361l.044-.044q.006-.14.033-.274l-.022-.021a.1.1 0 0 0 .055-.055 6 6 0 0 0-.011-.613q.036-.303.22-.548a9 9 0 0 1 .64-.646q.219-.127.441-.24a4 4 0 0 1 .53-.143h.772q.218.078.42.143.232.121.407.317.371.49.43 1.106a.5.5 0 0 0 .056.12l.022.438q.03.027.044.066.006.584.066 1.16.054.217.121.427a.1.1 0 0 0-.022.033l.077.46.022.482q.056.128.089.262l.022.22.044.043q.069.785.176 1.555l.022.679a.6.6 0 0 1 .067.284l.044.044q.048.16.088.329a.35.35 0 0 1-.011.208q.052.06.055.142.012.418.066.832a1.6 1.6 0 0 1 .353 0 .08.08 0 0 0 .044-.044q.023.088.044 0 .023.045.044 0 .022.088.045 0 .021.045.044 0 .023.088.044 0 .023.045.044 0 .023.088.044 0 .023.045.044 0 .023.088.044 0 .023.045.044 0 .023.088.045 0l.022.044a.1.1 0 0 1 .066-.044q.444.037.893 0a.2.2 0 0 1 .055.044h.089q.043-.078.066 0l.022-.044q.023.045.044 0 .023.088.044 0 .023.045.044 0 .023.088.044 0 .023.045.044 0 .023.088.045 0 .021.045.044 0 .023.088.044 0 .023.045.044 0 .023.088.044 0 .023.045.044 0 .023.088.044 0 .023.045.044 0 .021.082.056 0 .375-.021.76 0l.045-.043q.023.044.044 0 .023.087.044 0 .045.087.088 0 .023.087.044 0 .045.087.089 0a.15.15 0 0 0 .121.043q.083-.007.143-.022l.11.044a.4.4 0 0 1 .265 0q.152-.036.298-.087a.7.7 0 0 0 .066-.329 1.4 1.4 0 0 0-.044-.306q-.012-.465 0-.942a1 1 0 0 1 .067-.142 8 8 0 0 1-.023-.767.5.5 0 0 1 .056-.076q0-.411.044-.81.005-1.245.033-2.486a.3.3 0 0 1-.022-.131.5.5 0 0 1 .055-.077q.05-.418.077-.843-.007-.27-.022-.504l.044-.153a.4.4 0 0 0-.022-.153q.089-.023 0-.044a.11.11 0 0 0 0-.131q.089-.023 0-.044a.11.11 0 0 0 0-.131q.089-.023 0-.044a.14.14 0 0 0 0-.153q.089-.066 0-.132.045-.054 0-.11.089-.02 0-.043a.11.11 0 0 0 0-.131q.089-.023 0-.044a.11.11 0 0 0 0-.132q.089-.021 0-.043a.11.11 0 0 0 0-.132q.089-.021 0-.044a.11.11 0 0 0 0-.131q.089-.023 0-.044a.14.14 0 0 0 0-.153q.066-.08 0-.131a.3.3 0 0 0 .044-.088 2 2 0 0 0-.022-.219.4.4 0 0 0 .044-.12 2.2 2.2 0 0 1 0-.427l-.01-.23a.2.2 0 0 0-.034-.055q.053-.105-.022-.22a3 3 0 0 1 0-.459.2.2 0 0 1-.055-.033l-.022-.898a.5.5 0 0 1-.055-.12 4 4 0 0 1 .022-.263 1.1 1.1 0 0 1-.077-.427.11.11 0 0 0-.056-.076l.023-.022a1.6 1.6 0 0 1-.034-.252q-.06-.074-.033-.153l-.154-.865a.23.23 0 0 0 .022-.143.1.1 0 0 0-.055-.065l-.022-.373a.24.24 0 0 1-.033-.164q-.029-.299-.033-.602-.053-.092.01-.164a1 1 0 0 0-.066-.132q.014-.473.023-.897-.045-.39-.122-.756l-.022-.394-.044-.044a2.3 2.3 0 0 1 .188-1.259l-.023-.022q.062-.066.11-.142.083-.043.155-.099.218-.087.485-.153a.15.15 0 0 0 .078-.055q.101.013.22 0a.11.11 0 0 1 .055-.087 2 2 0 0 0 .144 0l.022.044a.09.09 0 0 1 .1-.044" opacity=".222"/><path d="M78.359 5.678a.09.09 0 0 1-.077-.044q-.23-.533-.441-1.073a.76.76 0 0 0-.453-.34 22 22 0 0 0-.562-.098q-.217.016-.42 0a54 54 0 0 1-.959.099l-.838.306q-.732.41-.938 1.216-.118.585.044 1.16.248.657.684 1.204.802.819 1.93.712.519-.12.872-.515.352-.635.772-1.226.212-.336.309-.722a.09.09 0 0 1 .077-.044 1 1 0 0 0 0 .164q-.11.045-.1.164-.119.201-.209.416-.408.615-.794 1.248a1.45 1.45 0 0 1-.982.57l-.11.044a.36.36 0 0 0-.199 0 6 6 0 0 1-.695-.143q.045-.021 0-.044a3 3 0 0 1-.374-.153 3 3 0 0 1-.695-.646 4.3 4.3 0 0 1-.54-1.04l.021-.022a.15.15 0 0 1-.055-.076l-.022-.22-.055-.054q.012-.269 0-.526a.3.3 0 0 1 .044-.054q.162-1.08 1.125-1.522.227-.075.441-.175l.177-.022q.023-.07.077-.033.206-.012.397-.066l.022.022a.1.1 0 0 1 .066-.044q.141 0 .287.022a.5.5 0 0 0 .165-.066q.258.015.53 0 .066.045.143.066l.199-.022a.3.3 0 0 0 .21.077q.16.072.308.175.249.248.298.602.108.19.177.394.06.113.143.208a.3.3 0 0 0 0 .12" opacity=".22"/><path d="M78.359 5.678v.635a.09.09 0 0 0-.077.044 2.5 2.5 0 0 1-.31.722q-.418.591-.771 1.226a1.64 1.64 0 0 1-.872.515q-1.128.106-1.93-.712a4.4 4.4 0 0 1-.684-1.204 2.4 2.4 0 0 1-.044-1.16q.206-.807.938-1.216l.838-.306q.48-.045.96-.099.2.016.419 0 .28.045.562.099a.76.76 0 0 1 .452.34q.211.54.442 1.072a.09.09 0 0 0 .077.044" opacity=".994"/><path d="M78.05 7.057q.045.022 0 0m-20.957 3.657q.045.022 0 0m-45.819 1.205q.045.021 0 0m18.464 1.576q.045.023 0 0" opacity=".114"/><path d="M75.182 13.583q.032.015.055.043h.177l.044-.043q.028.03.066 0a.08.08 0 0 1 .044.043q.023-.087.044 0 .023-.087.044 0 .023-.087.045 0a.1.1 0 0 1 .033-.021q.134.048.276.065a.5.5 0 0 1 .12-.022.8.8 0 0 0 .376.077q.13.03.254.077l.022-.022q.265.049.419.263a.9.9 0 0 0 .066.372l.022.7a.16.16 0 0 0 .044.066l.022.416a.16.16 0 0 1 .044.066 7.4 7.4 0 0 0 .177 1.16q.006.177.033.35a.1.1 0 0 1 .033.023q0 .425.077.843-.02.144-.022.284.028.694.033 1.39.035.53.077 1.063a.3.3 0 0 0 .022.252q-.044.58 0 1.16a.24.24 0 0 0-.044.143q.082.293.067.602l-.011.394a1 1 0 0 1-.056.098q.075.081.011.165.01.213-.022.416-.021.69 0 1.38.009.12.033.24a.19.19 0 0 0 .022.208.4.4 0 0 0-.044.077q.09.12 0 .24a.3.3 0 0 1 .056.154q.053.806.077 1.62a.1.1 0 0 1 .033.044q-.01.849.077 1.686a.25.25 0 0 0 .033.24l.022 1.14q.032.128.011.251a.18.18 0 0 0 .044.11q-.024.184 0 .383l-.121.46a6 6 0 0 0-.066.613q-.07.128-.133.263-.343.374-.783.624a.4.4 0 0 0-.231.076 4 4 0 0 0-.64 0 1.1 1.1 0 0 0-.353-.087.4.4 0 0 1-.132.022.14.14 0 0 0-.11-.066 3 3 0 0 1-.31 0q-.05-.054-.11-.022a1 1 0 0 0-.32-.055 1 1 0 0 1-.099-.054.3.3 0 0 0-.11.022 4 4 0 0 1-.453-.209 1.04 1.04 0 0 1-.353-.613 3 3 0 0 1-.11-.372 1 1 0 0 0 .022-.164.2.2 0 0 0-.033-.088 6 6 0 0 1 0-.7.1.1 0 0 0 .033-.066 1.6 1.6 0 0 1 0-.438.58.58 0 0 1 0-.438q-.029-.263.088-.525-.04-.115.034-.241.007-.156.033-.307-.032-.053.033-.088.027-1.38-.011-2.759a.2.2 0 0 1-.044-.065q0-.07.022-.142a4 4 0 0 0-.067-.438.3.3 0 0 1 .045-.088.25.25 0 0 1-.011-.252 5 5 0 0 0 0-.657 1 1 0 0 1-.056-.164q.024-.316 0-.679l-.044-.022.022-.328q-.026-.639-.044-1.281.01-.265.044-.526a.1.1 0 0 0-.022-.033q.112-.141.022-.284 0-.052.022-.11l-.044-.065q-.003-1.266.022-2.398a15 15 0 0 0-.066-.712.3.3 0 0 0 .022-.164.76.76 0 0 1-.044-.372 8 8 0 0 1-.187-.723l-.044-.044a2 2 0 0 0-.133-.59l-.022-.307a.4.4 0 0 1-.055-.077q.006-.228.022-.493a.4.4 0 0 1-.066-.11q0-.469.01-.963.097-.305.365-.514a.6.6 0 0 1 .22-.099q.035-.081.056 0a.5.5 0 0 1 .176-.11l.022.023q.213-.068.43-.11a.1.1 0 0 1 .033.022.09.09 0 0 1 .078-.044q.207-.003.419 0a.2.2 0 0 0 .099-.043q.052.042.077-.022" opacity=".219"/><path d="M75.094 13.67a7.7 7.7 0 0 1 1.809.208q.257.06.276.318.068.711.132 1.423.137.9.287 1.796.06 1.123.066 2.255.1 1.388.088 2.78.06.276.055.56-.07.504-.099 1.017a21 21 0 0 0 0 1.358q.05.06.011.12.028.344.033.69.104 1.05.155 2.102-.023.84.088 1.686.02.975.044 1.95-.105.409-.132.831a.9.9 0 0 1-.11.285 2.5 2.5 0 0 1-.806.646 1.6 1.6 0 0 1-.76.033.1.1 0 0 1-.034.022 29 29 0 0 0-1.588-.241 2 2 0 0 1-.441-.208 1.6 1.6 0 0 1-.387-.887q-.018-.318-.055-.635.055-.744.055-1.489.11-.479.177-.963.023-1.38 0-2.76-.04-.322-.077-.645.038-.44.044-.865-.106-.677-.088-1.358a40 40 0 0 1-.044-1.171 3 3 0 0 1 .044-.57.35.35 0 0 1 .044-.208 2.3 2.3 0 0 1-.067-.514q0-1.114.023-2.223a11 11 0 0 0-.188-1.577 8 8 0 0 1-.353-1.598 14 14 0 0 1-.022-1.336.8.8 0 0 1 .452-.558 3.2 3.2 0 0 1 1.29-.23.14.14 0 0 0 .078-.044" opacity=".996"/><path d="M30.841 13.802q.045.021 0 0m.419 0q.045.021 0 0m-17.581 3.284q.045.022 0 0" opacity=".114"/><path d="M66.071 18.028q.351.045.63.263.088.128.087.284.03.35.022.7-.245 1.174-.507 2.344a4.8 4.8 0 0 1-1.136 1.719q-1.101.796-2.438 1.105a.1.1 0 0 0-.044-.021q-.364.07-.728.131l-.066-.022a.27.27 0 0 1-.254.044 4 4 0 0 1-.397.076q-.181.094-.386.121a.23.23 0 0 1-.198-.197q-.023-1.215 0-2.43.036-.334.055-.668-.01-.204-.022-.406.045-.283.077-.569a.6.6 0 0 1 .088-.197q.261-.21.563-.361.945-.425 1.853-.92.417-.135.816-.328.642-.226 1.257-.504.368-.09.728-.164m-3.684 6.394q-.01-.045-.022 0-.047-.034-.088.021a.1.1 0 0 1-.033-.021.52.52 0 0 1-.342.043.7.7 0 0 0-.177.066.6.6 0 0 1-.209-.022 3 3 0 0 0-.563.186.3.3 0 0 1-.187-.01.15.15 0 0 0-.066-.11 66 66 0 0 1 0-2.409.2.2 0 0 1 .044-.066l.022-1.138a2 2 0 0 0 .066-.504.7.7 0 0 0 .077-.131q.127-.099.265-.186a.3.3 0 0 0 .143-.077l.023.022a.6.6 0 0 1 .143-.12q.563-.242 1.103-.515a.5.5 0 0 1 .242-.12q.12-.054.232-.12l.022.021a1.04 1.04 0 0 1 .585-.274q.343-.187.728-.284a.2.2 0 0 1 .165-.055q.044-.082.144-.077.032-.058.077-.033.417-.2.86-.328.067.03.121-.033a.6.6 0 0 0 .276-.033l.022.022a.12.12 0 0 1 .078-.066q.302.094.562.307.007.075.033.142-.045.064.022.132a.8.8 0 0 0-.022.24q.024.06.044.121a.23.23 0 0 0 0 .197q-.078.099-.044.186a5 5 0 0 1-.066.263l.022.022a.3.3 0 0 0-.066.131.3.3 0 0 0 .022.132.14.14 0 0 1-.055.076 3 3 0 0 0-.089.482q-.07.059-.032.131-.075.286-.155.548a.165.165 0 0 1-.033.197l-.022.219a4.8 4.8 0 0 1-.816 1.357.2.2 0 0 0-.033.11.07.07 0 0 0-.067.022q-.1.108-.198.208a7.7 7.7 0 0 1-1.963.974.21.21 0 0 0-.177.055 9 9 0 0 0-.618.099" opacity=".224"/><path d="M56.806 19.232q-.023-.045 0 0m0 .942q-.023.021 0 0" opacity=".114"/><path d="M58.902.795a.095.095 0 0 1 .1.044.08.08 0 0 1 .043-.044.5.5 0 0 1 .078.077q.551.12.76.645.041.212.089.417a.2.2 0 0 1 .044.065l.022 2.76a4 4 0 0 1 .088.415l.022.723q.003.082.055.142l-.022.066.1.821.044.044.066.503a.2.2 0 0 0 .044.088q.005.194.066.372.04 1.17.044 2.343.042.216.045.438a.16.16 0 0 1 .044.066q.002.149.044.285.023 1.007 0 2.014a28 28 0 0 1-.1 1.566q.006.348.067.69a.8.8 0 0 0 0 .372q.26-.072.485-.23.47-.202.938-.34l.022.022q.234-.103.474-.186.028-.09.055-.01a.6.6 0 0 1 .166-.1 16 16 0 0 0 1.51-.536q.417-.243.872-.317a.11.11 0 0 0 .077-.055l.022.044q.231-.1.464-.154.013.016.033.022a.37.37 0 0 1 .253-.044.1.1 0 0 1 .055-.054q.15-.049.31-.066a.4.4 0 0 0 .088-.055q.124.018.231-.065.228.03.463 0 .042.008.067.043l.11-.021a.5.5 0 0 0 .176.065.1.1 0 0 1 .033-.022q.225.135.442.23.137.06.287.088.364.17.706.372.04.038.066.088l.33.197q.533.642.63 1.478a.16.16 0 0 0 .043.066q.054.414.144.81-.045.088.033.153.06.51.088 1.03.025.077.055.152 0 .759-.01 1.533a2.4 2.4 0 0 0-.067.57.1.1 0 0 1-.033.021l-.044.416q-.064.072-.022.154-.02.135-.066.262.016.031.022.066-.058.339-.1.679a.2.2 0 0 1-.044.066 7 7 0 0 0-.088.503q-.06.05-.033.11a.3.3 0 0 1-.055.087q-.027.19-.088.373a1.2 1.2 0 0 1-.155.328.24.24 0 0 1-.066.175q-.06.248-.088.504-.047.139-.122.263a.1.1 0 0 0 .022.032q-.358.675-.706 1.347l-.231.329q-.603.657-1.269 1.237a6.6 6.6 0 0 1-1.433.679q-.247.117-.497.23l-.022-.022a.6.6 0 0 1-.143.032.11.11 0 0 0-.078.055.3.3 0 0 0-.21 0 .1.1 0 0 0-.054.066l-.066-.022a3 3 0 0 0-.287.088q-.085-.044-.133.043l-.022-.021q-.3.061-.595.153a.28.28 0 0 0-.243.065.7.7 0 0 0-.154-.021.15.15 0 0 0-.11.065q-.48.015-.95 0a.16.16 0 0 0-.043.066h-.331a.35.35 0 0 1-.243.044l-.154.043a.23.23 0 0 0-.188 0q-.011-.044-.022 0a.5.5 0 0 0-.187-.021.15.15 0 0 1-.078.054l-.264.066a.2.2 0 0 0-.033.055q-.012.488-.034.974.066 1.095-.055 2.179a4 4 0 0 0-.176.657.44.44 0 0 0-.066.24.5.5 0 0 0-.056.1 2 2 0 0 0 0 .24l-.033.033a4 4 0 0 0-.044.394q-.061.151-.11.307a1.4 1.4 0 0 1-.375.35h-.507a.3.3 0 0 1-.078-.066.2.2 0 0 1-.12 0q-.307-.086-.608-.186-.278-.134-.551-.285a1 1 0 0 1-.154-.032 2.5 2.5 0 0 1-.442-.12 1.4 1.4 0 0 1-.286-.209q-.15-.08-.31-.142a.9.9 0 0 1-.22-.35.4.4 0 0 1 .033-.077q.006-.227.033-.449a5 5 0 0 1-.022-.613.1.1 0 0 0 .066-.055.55.55 0 0 1-.044-.274q.027-.23.066-.46l-.022-.284q.025-.072.056-.142.006-.254.033-.504-.027-.056.022-.11.027-.24.033-.481.092-.116.033-.23.068-.53.154-1.051-.037-.034.022-.044-.025-.035.011-.077.008-.132.034-.262a1 1 0 0 0-.023-.099.1.1 0 0 0 .056-.055l.022-1.817q.038-.18.033-.372a13 13 0 0 1-.055-.898.6.6 0 0 0-.056-.164.3.3 0 0 1 .023-.077 2 2 0 0 1-.034-.263.2.2 0 0 0-.055-.033l.022-.022a2 2 0 0 0-.231-.098q-1.036.01-2.074 0l-.154.044a4.7 4.7 0 0 0-.86 0q-.09-.09-.166.01a3 3 0 0 1-.53 0 .5.5 0 0 0-.077-.054q-.045.045-.088 0a.3.3 0 0 0-.133.066 1 1 0 0 0 0 .306.7.7 0 0 1 .067.285l.022.46q.042.135.044.284l.044.044q.064.247.11.504l.022 1.007q.005.115.056.219a.6.6 0 0 0-.056.219l-.022 1.03a1 1 0 0 1-.055.098q.117.732-.232 1.368-.194.227-.485.329a6 6 0 0 0-.518-.033.35.35 0 0 0-.155-.044 45 45 0 0 1-1.345-.558 2.05 2.05 0 0 1-.883-1.106l.022-.066a1 1 0 0 1-.055-.098 7 7 0 0 1 .077-1.555.3.3 0 0 1-.022-.164l.056-.12a8 8 0 0 0 0-.833.4.4 0 0 0-.056-.186l.022-.11a46 46 0 0 1-.143-.82 4 4 0 0 0-.132-.395.6.6 0 0 0-.133-.175 3 3 0 0 1-.496.022q-.011-.043-.022 0a.8.8 0 0 1-.188-.022.4.4 0 0 1-.154.066 51 51 0 0 0-.662-.022.65.65 0 0 0-.463.24 1.5 1.5 0 0 1-.199.395l-.022.11-.198.35a6 6 0 0 0-.508.679 26 26 0 0 1-.937 1.489q-.346.318-.64.678-.193.253-.364.526-.275.537-.53 1.095-.179.299-.407.558a5 5 0 0 1-.287.493 1.83 1.83 0 0 1-.794.733q-.233.044-.453.033-.469-.141-.915-.317a3 3 0 0 1-.519-.143.1.1 0 0 1-.033.022 2 2 0 0 1-.32-.153l-.022.022a.2.2 0 0 0-.033-.055l-.22-.066a18 18 0 0 0-.574-.405 3 3 0 0 0-.287-.131v-.066q-.045.006-.088-.01a9 9 0 0 1-.64-.647 13 13 0 0 0-.33-.514l.022-.022a1.2 1.2 0 0 1-.21-.47l-.044-.045a13 13 0 0 0-.254-.799l.022-.022a2 2 0 0 0-.088-.262l.022-.022a4 4 0 0 0-.088-.405.1.1 0 0 1-.033-.022 3 3 0 0 1-.088-.329 1 1 0 0 0-.078-.098.3.3 0 0 1 .022-.077.86.86 0 0 1-.121-.438l-.044-.088-.022-1.313a.3.3 0 0 1-.066-.176.9.9 0 0 0-.298-.186 1.1 1.1 0 0 1-.42-.076q-.054.043-.11 0a.6.6 0 0 1-.198.065 21 21 0 0 0-.552 0 .1.1 0 0 0-.055.066q-.071-.123-.154 0h-.353a2 2 0 0 1-.144-.066 5 5 0 0 0-.628 0 .14.14 0 0 1-.078-.054 6 6 0 0 0-.231-.011q-.102.03-.066.131.075.162.22.263.146.258.31.503.087.304.131.614.023.777 0 1.554-.099.563-.132 1.139-.166.608-.309 1.226-.176.393-.419.745-.352.356-.739.678-.504.448-1.037.865a5.6 5.6 0 0 1-1.765.81l-.628.274-.022-.022q-.09.028-.177.066a1 1 0 0 1-.132-.022.8.8 0 0 1-.22.066 6 6 0 0 0-.332-.022.54.54 0 0 1-.297.077.2.2 0 0 0-.034.054l-.154-.022q-.164.108-.309.066-.064.048-.132.022l-.044.044h-.651a.3.3 0 0 0-.254-.044.33.33 0 0 0-.165-.066.2.2 0 0 0-.122 0q-.029-.093-.11-.044a.3.3 0 0 1-.165-.087.2.2 0 0 1-.177-.044 1 1 0 0 1-.121 0q-.028-.053-.066-.022a8.4 8.4 0 0 0-1.125-.372l-.022.022a.1.1 0 0 0-.055-.055l-.133-.022a5 5 0 0 0-.397-.186 1 1 0 0 1-.309-.164 15 15 0 0 0-.562-.164.1.1 0 0 0-.044.022.6.6 0 0 0-.166-.066q-.011-.045-.022 0-.053.033-.088-.033a.35.35 0 0 1-.243-.077.3.3 0 0 1-.132 0q-.056-.085-.144-.043a.1.1 0 0 1-.077-.055 1.9 1.9 0 0 1-1.114-.734l-.364-.777.022-.066a1 1 0 0 1-.066-.175v-.482q.03-.267.121-.536a4 4 0 0 0 .11-.22q.002-.43.2-.81.186-.201.385-.393a5.5 5.5 0 0 1 .695-.241q.34-.008.662 0a.6.6 0 0 1 .243.175q.19.298.419.57.084.15.154.306.14.148.298.274.247.116.496.23a.1.1 0 0 1 .033-.023q.176.09.375.12.168.053.31.143.191.07.396.099l.044.044.287.065.044.044a.4.4 0 0 1 .254.077.33.33 0 0 1 .254.044q.03-.004.055-.022.142.035.287.065a3 3 0 0 0 .297-.022q.123.038.232.044l.044-.044a2 2 0 0 1 .287.022.33.33 0 0 1 .254-.043 1 1 0 0 1 .165-.066q.05.033.1-.011l-.023-.022q.512-.165.927-.416.362-.141.772-.263a6 6 0 0 1 .353-.208l.287-.284q.29-.404.595-.8l-.022-.022q.061-.09.133-.175a.2.2 0 0 0-.022-.087l.066-.198a8 8 0 0 1 0-.383 1 1 0 0 0-.044-.098v-.22a4.4 4.4 0 0 0-.673-1.149 2.4 2.4 0 0 0-.695-.47 3.2 3.2 0 0 0-.552-.329.3.3 0 0 1-.099-.033q-.067.048-.121-.033a8 8 0 0 1-.563-.032q-.975.04-1.941 0-.39.026-.783.032a.15.15 0 0 0-.077.055l-.144-.066a.6.6 0 0 0-.121.066 196 196 0 0 0-2.118-.022 2 2 0 0 1-.21.044.1.1 0 0 1-.055-.022 3 3 0 0 1-.22.066q-.521-.017-1.059-.022a.1.1 0 0 1-.066.044q-.69.007-1.28-.022l-.044.044h-.595a.8.8 0 0 1-.31.087.38.38 0 0 0-.341.044.7.7 0 0 0-.232 0 .15.15 0 0 0-.154-.066.3.3 0 0 0-.199.066.1.1 0 0 0-.055-.055 2 2 0 0 0-.342.011 4 4 0 0 1-.507-.066.74.74 0 0 0-.331.044.16.16 0 0 0-.044-.066.25.25 0 0 1-.243.022.25.25 0 0 1-.243 0 .08.08 0 0 0-.055.033 3 3 0 0 0-.353.033.3.3 0 0 0-.187-.022q-.056-.058-.122-.022a.19.19 0 0 0-.165 0l-.044-.043-.11.043a.11.11 0 0 0-.133 0q-.072-.072-.154 0-.056.006-.11-.043l-.067.043a.11.11 0 0 0-.132 0l-.044-.043q-.43.044-.86 0-.072.06-.166.021a.15.15 0 0 0-.121.044l-.022-.022-.276.044a.7.7 0 0 0-.287-.01l-.055.054q-.4 0-.86-.022a.4.4 0 0 1-.166.131.85.85 0 0 0-.066.34q.016.28.066.558a.3.3 0 0 0-.022.088q.075.585.077 1.182a.16.16 0 0 1 .044.066q.062.705.056 1.423-.04 1.326-.11 2.65l.01.657a.7.7 0 0 1 .044.24q.023.657 0 1.314a.16.16 0 0 1-.044.066 3.7 3.7 0 0 0-.088.723q-.11.544-.596.766a1 1 0 0 1-.275.131q-.022 0-.022.022a7 7 0 0 1-.75.022.37.37 0 0 0-.32-.087l-.055-.055-.177-.022-.044-.044-.441-.131a11 11 0 0 1-.574-.362 1.55 1.55 0 0 1-.408-.92 1 1 0 0 0-.055-.142q0-.05.022-.109a11 11 0 0 1-.044-.34q.009-.128 0-.251.05-.217.022-.394a.08.08 0 0 0 .044-.044 1 1 0 0 1 .066-.274l.044-.46a.4.4 0 0 1-.022-.11.26.26 0 0 1 .066-.152 15 15 0 0 1-.022-1.008q.08-.3.056-.613a.7.7 0 0 1-.056-.142q.034-1.38.022-2.551a.07.07 0 0 0-.044-.044 9 9 0 0 1-.033-.613.16.16 0 0 1-.044-.066l-.01-.34a2.4 2.4 0 0 1 .043-.415l-.044-.022q.018-.045.022-.088a10 10 0 0 1-.033-.646.25.25 0 0 0-.198-.11 2 2 0 0 0-.342.034l-.033.032-.11-.021a.4.4 0 0 1-.243.021q-.128.024-.254.044a.2.2 0 0 0-.177 0q-.088-.064-.187 0-.023-.044-.044 0l-.022-.043q-.06.024-.122.043a.2.2 0 0 0-.176 0q-.084-.072-.177 0-.03-.037-.055 0l-.022-.043q-.06.024-.121.043a.45.45 0 0 0-.276 0l-.066-.043-.375.021a1 1 0 0 1-.132-.043q-.443.042-.883 0-.32.057-.64.11a.3.3 0 0 0-.198.043 6 6 0 0 0-.596 0q-.07-.098-.176-.044a.43.43 0 0 1-.199-.087.1.1 0 0 1-.044.021q-1.233-.347-1.83-1.467a.3.3 0 0 0-.034-.076l.022-.022a.38.38 0 0 1-.088-.296q.041.002.055.044.05.24.154.46.849 1.33 2.45 1.401a8 8 0 0 0 1.091-.142q.466-.015.927-.011.19.051.386.066.864-.018 1.72 0 .372-.07.75-.11a.42.42 0 0 1 .31.131q.031.405.076.81a1.5 1.5 0 0 0-.044.417l.078.985.022 2.365q.014.292.055.58-.003.217-.055.427a35 35 0 0 1-.034 1.16.5.5 0 0 0 .023.1 8 8 0 0 1-.166 1.017q-.025.484.044.964.025.466.31.832a2.5 2.5 0 0 0 1.223.613q.385.117.784.154.273-.04.562-.1a.97.97 0 0 0 .65-.689q.064-.498.177-.985 0-1.058-.055-2.113.05-1.353.11-2.704a23 23 0 0 0-.055-1.117l-.187-2.124q.023-.13.033-.263a.38.38 0 0 1 .276-.263h.573q.33-.04.662-.055a1 1 0 0 0 .276-.054 62 62 0 0 0 2.073 0q.44.082.883 0 .297.028.595 0 .235.034.475.055.51.026 1.014.032a56 56 0 0 1 1.688-.153q.644.002 1.302.022.573-.045 1.136-.077a10 10 0 0 1 1.125.011q.093-.023.187-.043.608.024 1.214 0 .09-.019.176-.044 1.613.034 3.177 0 .123.046.253.076.503.276.993.57.645.552.938 1.346.126.444.066.898-.091.346-.309.635-.223.279-.43.57a1.55 1.55 0 0 1-.662.514 8 8 0 0 0-1.39.591 5.5 5.5 0 0 1-.871.252 16 16 0 0 0-.838 0 32 32 0 0 1-.552-.131.1.1 0 0 1-.033.021q-.9-.294-1.809-.58a4 4 0 0 1-.485-.24l-.276-.274-.132-.263a4.4 4.4 0 0 1-.42-.591.6.6 0 0 0-.463-.175.35.35 0 0 1-.242 0 5 5 0 0 0-.74.186q-.697.447-.694 1.28a2.2 2.2 0 0 0-.022 1.709q.318.862 1.202 1.15l.96.273q.582.082 1.092.405l2.029.657q.431.113.86.153.223.014.43.011.147-.023.287-.066a.1.1 0 0 0 .044.022q.707-.201 1.445-.23.378-.107.728-.284a5.9 5.9 0 0 0 2.052-1.008q.41-.397.86-.744l.42-.372q.347-.336.54-.778.36-1.026.441-2.102.03-.234.1-.46v-1.423a2.6 2.6 0 0 0-.21-.81 6 6 0 0 0-.22-.328 1.2 1.2 0 0 1-.299-.416.2.2 0 0 1 .044-.055 1 1 0 0 1 .232-.033q.203.036.408.066.22.004.43-.022a.2.2 0 0 0 .056.032q.293.01.584.012a.9.9 0 0 1 .397-.022q.245-.014.497-.066l.463.076a.45.45 0 0 1 .386.362l.022 1.204q.052.531.287 1.007.153.59.287 1.183.166.605.463 1.16.519.866 1.423 1.325.345.315.794.46.723.215 1.434.46.239.067.452.076.27-.054.496-.208.46-.445.74-1.018l.374-.503q.298-.577.574-1.161.198-.316.42-.613a6 6 0 0 0 .727-.788q.606-1.041 1.324-2.015.223-.453.463-.898a.9.9 0 0 1 .353-.175q.3 0 .573.022a4 4 0 0 1 1.07-.055q.15.14.21.34.065.333.154.657l.11.766.012.646a10 10 0 0 0-.144 1.916q.165.837.894 1.28.596.279 1.213.505 1.308.484 1.445-.887.06-.99.1-1.971a1 1 0 0 0-.045-.318.2.2 0 0 1 .022-.087q-.027-.408-.033-.821a9 9 0 0 0-.176-.788 12 12 0 0 0-.044-.504.9.9 0 0 0-.067-.285 1.2 1.2 0 0 1 0-.328.23.23 0 0 1 .133-.088q.226.027.507.044l.232-.011.066-.033q.639.009 1.246.022l.375-.044q.546.032 1.048 0 .105.02.21.044l.375-.022q.191.046.287.22.05.491.088.985.004 1.29-.044 2.583-.136.683-.199 1.38-.046.049-.01.098-.045.06-.023.12-.108 1.05-.22 2.092.027.171.022.35a1 1 0 0 0-.056.23q.021.488-.033.975.015.184.155.306.28.112.507.307.384.126.772.24.613.371 1.324.482.65.129.85-.492.037-.32.087-.635a7.45 7.45 0 0 0 .364-3.307 3.3 3.3 0 0 0 .022-.941.24.24 0 0 1 .089-.12q.166-.05.33-.11.49 0 .96-.12.014.015.033.021.273-.072.552-.044a6.6 6.6 0 0 0 1.842-.328q.013.015.033.022a9.2 9.2 0 0 0 2.713-1.062q.778-.64 1.423-1.412.356-.672.728-1.336.168-.459.265-.942a7.5 7.5 0 0 0 .463-1.445q.234-1.23.353-2.452.022-.58 0-1.16a5 5 0 0 0-.055-.614.66.66 0 0 0-.044-.416.2.2 0 0 0 .022-.066 5 5 0 0 0-.077-.57q-.154-.625-.265-1.27a4 4 0 0 0-.154-.415 1.9 1.9 0 0 0-.43-.624 1.7 1.7 0 0 1-.464-.307 21 21 0 0 0-1.235-.57q-.217-.048-.43-.098a3 3 0 0 1-.376 0q-.955.273-1.93.493-.502.202-.993.438-.875.243-1.698.613-.75.15-1.39.57a.16.16 0 0 1-.165-.033q-.045-.541-.078-1.084.11-1.71.1-3.427l-.133-.876a135 135 0 0 0-.044-2.234q-.091-.528-.176-1.073a.23.23 0 0 1-.033-.208 8.3 8.3 0 0 1-.188-1.543 9 9 0 0 1-.1-1.15q.039-1.013.012-2.025a6 6 0 0 0-.11-.482.93.93 0 0 0-.43-.58 1.6 1.6 0 0 0-.486-.154 1 1 0 0 1-.044-.098M40.989 24.247q-.336.027-.684.032a.7.7 0 0 0-.11.296q.037.138.066.285-.036.072.033.131a.5.5 0 0 0 .067.24q.081.653.198 1.293.057.078.1.164.07.03.143.055.01-.06.044-.022a.3.3 0 0 1 .077-.033 2 2 0 0 0 .53-.591l-.023-.022q.063-.036.044-.088.129-.203.265-.405.139-.153.298-.285.099-.168.21-.328.081-.098.176-.186l-.022-.022q.238-.192.375-.46a.1.1 0 0 0-.055-.054.15.15 0 0 1-.154 0 2 2 0 0 1-.254.032.5.5 0 0 1-.077.055h-.265a.32.32 0 0 0-.232-.066.25.25 0 0 0-.21.066.3.3 0 0 0-.22 0 .8.8 0 0 0-.32-.087" opacity=".224"/><path d="M77.808 23.743q.044.022 0 0m-29.583.372h.022q-.007.023-.022 0" opacity=".114"/><path d="M40.372 24.18q.206-.002.408.044.184-.02.375-.021.12.047.253.043a.4.4 0 0 0 .21-.043 2.5 2.5 0 0 1 .496.043 7 7 0 0 1 .64-.032.13.13 0 0 1 .088.087 2.5 2.5 0 0 1-.43.537 8 8 0 0 1-.75.941 2.36 2.36 0 0 1-.607.887l-.198.11q-.24.046-.32-.187a12 12 0 0 0-.176-.897 3 3 0 0 0-.155-.723 1.6 1.6 0 0 1-.044-.526.35.35 0 0 1 .21-.262m.617.066q-.336.029-.684.033a.7.7 0 0 0-.11.296q.037.138.066.285-.036.073.033.13a.5.5 0 0 0 .067.242q.081.652.198 1.292.057.078.1.164.07.03.143.055.01-.06.044-.022a.3.3 0 0 1 .077-.033q.32-.242.53-.591l-.023-.022q.063-.036.044-.088.129-.203.265-.405.139-.153.298-.285.099-.169.21-.328.081-.097.176-.186l-.022-.022q.238-.192.375-.46a.1.1 0 0 0-.055-.055.15.15 0 0 1-.154 0 2 2 0 0 1-.254.033.5.5 0 0 1-.077.055h-.265a.32.32 0 0 0-.232-.066.25.25 0 0 0-.21.066.3.3 0 0 0-.22 0 .8.8 0 0 0-.32-.088" opacity=".22"/><path d="M5.494 24.487q.045.022 0 0m.155 0q-.022.022 0 0m.551 0q-.021.022 0 0m.552 0q-.022.022 0 0m6.618 0q.043.022 0 0m1.61 0q.045.022 0 0m.42 0q-.024.022 0 0m.882 0q.045.022 0 0m.529 0q.045.022 0 0m60.997 1.227q.044.021 0 0m-33.554 2.364q.045.022 0 0m16.898.832h.022q-.007.023-.022 0m-18.486 1.84q.044.021 0 0m-10.501.306q.045.023 0 0m-10.412.854q-.022.023 0 0m.463.11h.022q-.007.021-.022 0m.221.066q.044.021 0 0m.882.306q-.022.023 0 0m34.303 1.577q-.021.021 0 0m-46.899.919q.045.023 0 0m-.023.022h.023q-.006.023-.022 0" opacity=".114"/></g><defs><clipPath id="a"><path fill="#fff" d="M0 0h79v35H0z"/></clipPath></defs></svg>