<svg xmlns="http://www.w3.org/2000/svg" width="117" viewBox="0 0 117 40" height="40"><path d="m18.9052305.13336082c-2.1764486 0-4.0243851.78505073-5.5438095 2.35515217-1.5194243-1.57010144-3.36736079-2.35515217-5.54380945-2.35515217-2.04355539-.02994366-4.00834827.78735224-5.42778557 2.25779877-1.47075129 1.42628476-2.28725169 3.39659867-2.25646516 5.44512247v10.91825074h4.35956537v-10.91825074c-.00856177-.88643858.33823425-1.73938507.96293664-2.36834737.6247024-.6289623 1.47527242-.9815468 2.36174872-.97900933.88983457-.00718229 1.7452912.34322104 2.37439435.97257495.6291032.62935392.9791656 1.48495011.9716287 2.37478175v10.91825074h4.4009073v-10.91825074c-.0112951-.89118939.3446429-1.74775551.9842028-2.36848825 1.3017818-1.30065287 3.4111899-1.30065287 4.7129716 0 .6441746.62032153 1.0028551 1.47961016.9908709 2.37382268v10.91825071h4.3355604v-10.92358514c.0308373-2.04892388-.7856421-4.01966962-2.2564651-5.44645608-1.4891959-1.5043101-3.2980132-2.25646516-5.426452-2.25646516zm19.3693262 0c-2.5596388 0-4.7436445.91752248-6.5520173 2.75256743-1.8394903 1.81015093-2.7587909 3.99593484-2.7579025 6.55735175.0008897 2.5614169.9184122 4.7534243 2.752568 6.5760223 1.8065947 1.8225979 3.9906005 2.7343414 6.5520174 2.7352311 2.5614169.0008885 4.7529798-.910855 6.5746886-2.7352311 1.8208198-1.8243761 2.7316743-4.0163835 2.732564-6.5760223.0008884-2.55963876-.909966-4.74542268-2.732564-6.55735175-1.8217088-1.83504495-4.0114936-2.75256743-6.5693542-2.75256743zm3.4447101 12.75596288c-1.3878322 1.4001414-3.4850573 1.8209844-5.30562 1.0646607-1.8205627-.7563238-3.002233-2.5393318-2.9894233-4.5107044-.0099737-1.29174578.497022-2.53384206 1.4080686-3.44964808.9110466-.91580601 2.1504844-1.42926671 3.4422646-1.42602367 1.2945321-.01391832 2.5379799.50438583 3.4393757 1.43362886.9280244.90499117 1.443883 2.15124774 1.4269608 3.44737732.014463 1.29370257-.5011531 2.53696397-1.4269608 3.44070927zm27.0015662-12.75596288c-2.1773377 0-4.0248297.78505073-5.5424759 2.35515217-1.5185352-1.57010144-3.3673608-2.35515217-5.5464767-2.35515217-2.1124355 0-3.9208082.75259959-5.4251183 2.25779877-1.4696834 1.4266948-2.2847752 3.39710311-2.2524644 5.44512247v10.91825074h4.3528974v-10.91825074c0-1.84132874 1.4926918-3.33402062 3.3340206-3.33402062 1.8413287 0 3.3340206 1.49269188 3.3340206 3.33402062v10.91825074h4.4009072v-10.91825074c-.0105351-.89210582.3474817-1.74903015.9895373-2.36848825.6252754-.62544029 1.4734298-.97682286 2.3578194-.97682286s1.732544.35138257 2.3578194.97682286c.6432351.62096359 1.001738 1.47982654.9908709 2.37382268v10.91825071h4.3355604v-10.92358514c.0320576-2.04968785-.7857145-4.02122352-2.2591323-5.44645608-1.4918631-1.5043101-3.301125-2.25646516-5.4277856-2.25646516zm25.940014 2.75256743c-1.8243761-1.83504495-4.0154944-2.75256743-6.573355-2.75256743-2.5578607 0-4.7436446.91752248-6.5573518 2.75256743-1.8323777 1.81015093-2.7494557 3.99593484-2.7512364 6.55735175-.0017756 2.5614169.9153024 4.7534243 2.7512364 6.5760223 1.8137072 1.8230424 3.9941567 2.7352305 6.5573518 2.7352305 2.563195 0 4.7489789-.9135217 6.573355-2.7352305 1.8243761-1.8217089 2.7312297-4.0168281 2.7312297-6.5760223 0-2.55919423-.9095208-4.74764536-2.7312297-6.55735175zm-3.1299785 10.00206185c-1.9029448 1.9025498-4.9878091 1.9025498-6.8907539 0-.9144895-.9118551-1.421447-2.1547186-1.4056231-3.44604371-.0099793-1.29220941.4973812-2.53471404 1.4090067-3.45059823.9116254-.91588418 2.1517519-1.42903012 3.4439938-1.42507352 1.2960226-.01419795 2.5409762.50461311 3.4433765 1.43496247.9231325.90567868 1.436608 2.14890596 1.4216263 3.44204289.0148336 1.2942816-.4985341 2.5386928-1.4216263 3.4460437z"></path><path d="m102.345.133h-5.468l7.011 9.289-7.007 9.335h5.468l4.294-5.664 4.279 5.664h5.502l-7.029-9.335 7.029-9.289h-5.506l-4.279 5.666z"></path><path d="m2.454 27.746v3.138h5.641v2.323h-5.641v5.878h-2.321v-13.658h11.891v2.319z"></path><path d="m27.4456577 39.0827233-1.7403587-3.1899909h-8.3310508l-1.6870144 3.1899909h-2.6365435l7.3828553-13.6561485h2.3191447l7.434866 13.6561485zm-5.8785451-11.0462771-2.9792808 5.56248h5.957228zm19.8507587 11.5210416c-2.9526086 0-5.7998622-.5267752-8.1990235-2.3204783l1.1068949-2.0297518c2.2417954 1.4242936 4.0341649 2.0297518 6.7227192 2.0297518 2.6098713 0 4.4555851-.3694095 4.4555851-2.1884511.0130357-.357684-.068867-.7124425-.2373823-1.028212-.4480923-.684141-1.7336907-.8695126-3.795449-.8695126-4.0875093 0-4.6142846-.1840379-5.4051143-.5534474-1.238922-.5801196-1.8977245-1.8977245-1.8977245-3.2433353 0-3.3220181 3.3473567-4.3235579 6.1159274-4.3235579 2.4287695-.0196252 4.820109.5989039 6.9347629 1.7937031l-1.0762218 2.0817625c-1.9510689-1.1602392-3.5327283-1.5816594-5.7998623-1.5816594-2.2151233 0-3.6394169.5334433-3.6394169 1.8670515-.015242.324467.0674687.6460166.2373823.9228569.3694094.5534475 1.2655942.7641576 3.9288099.7641576 3.7167661 0 7.0921286.3160651 7.0921286 3.9288099-.0053344 3.8794663-3.2753418 4.7503125-6.5440157 4.7503125z"></path><path d="m63.959 39.083v-5.853h-8.384v5.853h-2.32v-13.656h2.32v5.483h8.384v-5.483h2.321v13.656z"></path><path d="m73.159 39.083v-13.656h2.323v13.656z"></path><path d="m89.2183918 39.5574878c-4.2448751 0-8.2256957-2.6365435-8.2256957-7.2014845v-.3694095c0-4.6129509 4.2675464-6.9601014 8.4364058-6.9601014 4.2968857 0 8.3043785 2.5578606 8.3043785 7.2014845-.0040008 4.6929674-4.1955315 7.3295109-8.5150886 7.3295109zm.1840379-12.1545055c-2.9792808 0-6.0639167 1.582993-6.0639167 4.9343505 0 3.295346 2.9526086 4.8516668 5.9065509 4.8516668s6.1425996-1.5816594 6.1425996-4.9343505c0-3.3526912-3.0099538-4.8516668-5.9892346-4.8516668z"></path><path d="m114.101 39.083-8.542-10.144v10.15h-2.32v-13.662h2.347l8.515 10.123v-10.123h2.323v13.656z"></path></svg>