<svg xmlns="http://www.w3.org/2000/svg" fill="none" viewBox="0 0 55 24" height="24" width="55">
<path fill="black" d="M48.7749 0.0400511C46.2632 0.332516 44.549 2.4803 44.7049 5.12162C44.879 8.00057 46.8682 9.74622 49.7282 9.52687C51.5249 9.38978 52.7624 8.42099 53.3399 6.69362C53.4224 6.46513 53.4866 6.26406 53.4866 6.23665C53.4866 6.20923 52.7624 6.09955 52.5516 6.09955C52.4782 6.09955 52.4416 6.16353 52.3682 6.37374C52.1024 7.22371 51.4882 8.00057 50.819 8.31132C50.1774 8.61292 49.3982 8.69518 48.564 8.55808C47.2165 8.32046 46.3182 7.4522 45.9424 6.02644C45.8415 5.6243 45.8232 5.45065 45.8232 4.8383C45.8232 4.0523 45.8874 3.67758 46.1165 3.07437C46.5015 2.06902 47.3265 1.33786 48.3624 1.05454C48.7932 0.935725 49.9207 0.935725 50.3607 1.05454C51.3049 1.31044 52.0291 2.00505 52.3316 2.92814L52.4049 3.17491L52.9091 3.13835C53.1932 3.11093 53.4224 3.09265 53.4316 3.08351C53.4682 3.05609 53.1932 2.27009 53.0649 2.00505C52.4966 0.871747 51.4424 0.204563 49.9757 0.0491912C49.4349 -0.0147854 49.2424 -0.014786 48.7749 0.0400511ZM1.89648 4.77432V9.38064H2.41898H2.94149V7.61671V5.85278H3.69315C5.59982 5.84365 6.37899 5.64258 7.05732 4.96625C7.37816 4.64637 7.64399 4.15283 7.73566 3.71414C7.80899 3.34856 7.79983 2.54428 7.71733 2.18784C7.56149 1.54807 7.10316 0.908306 6.57149 0.597562C6.44316 0.524446 6.16816 0.414772 5.96649 0.341656L5.59066 0.213703L3.74815 0.195423L1.90565 0.177144V4.77432H1.89648ZM5.37982 1.20077C5.95732 1.35614 6.32399 1.65775 6.54399 2.133C6.65399 2.37977 6.66316 2.45288 6.66316 2.99212C6.66316 3.54963 6.65399 3.60446 6.52566 3.85123C6.45232 3.99746 6.28732 4.22595 6.15899 4.34477C5.68232 4.7926 5.25149 4.90228 3.89482 4.90228H2.94149V2.99212V1.07282L4.02315 1.10024C4.79315 1.11852 5.18732 1.14593 5.37982 1.20077ZM11.1182 3.57704C11.1365 6.91297 11.1365 6.98609 11.2373 7.35167C11.5948 8.64034 12.5757 9.39892 14.0057 9.52687C14.8857 9.59999 15.5365 9.49032 16.2057 9.13387C17.0673 8.68604 17.6448 7.7995 17.8007 6.64792C17.8373 6.4103 17.8557 5.15818 17.8557 3.22974V0.186284H17.3332H16.8107V3.34856C16.8107 6.34632 16.8015 6.52911 16.719 6.88555C16.4165 8.07369 15.5365 8.69518 14.299 8.61292C13.2723 8.54894 12.5848 8.05541 12.2915 7.20544C12.1907 6.89469 12.1907 6.85813 12.1723 3.54049L12.154 0.195423H11.6315H11.109L11.1182 3.57704ZM21.8432 4.78346V9.38064L23.6582 9.36236L25.4732 9.34408L25.849 9.20699C26.6924 8.91453 27.2424 8.35701 27.5174 7.55274C27.6457 7.16888 27.6365 6.40116 27.499 5.95332C27.279 5.2313 26.729 4.72863 26.014 4.61895L25.8032 4.58239L26.069 4.48186C26.8207 4.18939 27.1507 3.72328 27.2515 2.76363C27.3432 1.94107 27.169 1.35614 26.6832 0.871748C26.3532 0.551865 26.0415 0.378214 25.5557 0.25026C25.2257 0.168005 25.024 0.158865 23.5115 0.158865H21.834V4.78346H21.8432ZM25.3723 1.17335C25.8948 1.38356 26.179 1.85882 26.1882 2.53514C26.1974 3.19319 25.9773 3.66844 25.5557 3.95177C25.1982 4.19853 24.9598 4.23509 23.8873 4.26251L22.8973 4.28993V2.66309V1.02712L24.0065 1.0454C25.0057 1.06368 25.1248 1.07282 25.3723 1.17335ZM25.2898 5.21302C25.8857 5.36839 26.3165 5.72483 26.509 6.23665C26.5915 6.44685 26.6007 6.57481 26.5915 6.88555C26.5549 7.52532 26.2615 7.97316 25.7115 8.25648L25.3998 8.41185L24.1532 8.43013L22.9065 8.44841V6.8033V5.1399H23.9698C24.749 5.1399 25.079 5.15818 25.2898 5.21302ZM31.3032 4.78346V9.38064H33.9432H36.574V8.90539V8.43013H34.4382H32.3024V4.30821V0.186284H31.8074H31.3124V4.78346H31.3032ZM39.9474 4.78346V9.38064H40.4424H40.9374V4.78346V0.186284H40.4424H39.9474V4.78346ZM3.97732 14.4805C2.04315 14.6998 0.658982 15.9245 0.154815 17.853C0.00814821 18.4379 -0.0468519 19.4524 0.0448149 20.1196C0.273982 21.8469 1.15398 23.0991 2.53815 23.6657C3.11565 23.9033 3.57399 23.9765 4.32565 23.9765C5.02232 23.9765 5.42566 23.9125 5.96649 23.7023C7.17649 23.2453 7.99233 22.2125 8.38649 20.6497C8.50566 20.1744 8.59733 19.4981 8.59733 19.1051V18.8583H6.50732H4.41732V19.3336V19.8088H5.96649H7.51566L7.47899 20.0556C7.26816 21.6276 6.35149 22.7335 5.06815 22.9802C3.54649 23.2727 2.18065 22.6329 1.54815 21.3351C1.25482 20.7319 1.13565 20.2567 1.10815 19.5255C1.07148 18.8035 1.14482 18.2368 1.32815 17.6428C1.61232 16.7471 2.16232 16.0708 2.89565 15.7143C3.45482 15.4401 3.86732 15.3579 4.58232 15.3944C5.25149 15.4219 5.59066 15.5133 6.04899 15.7509C6.58982 16.0342 7.00232 16.5003 7.24982 17.0944C7.30482 17.2406 7.36899 17.3594 7.39649 17.3594C7.41482 17.3594 7.64399 17.3412 7.90066 17.3137L8.36816 17.2772L8.34066 17.131C8.07483 15.8788 6.94732 14.8461 5.51732 14.5445C5.07732 14.4622 4.41732 14.4348 3.97732 14.4805ZM16.2148 14.4622C15.0048 14.6267 14.354 14.8826 13.6023 15.4858C12.1723 16.6374 11.5857 18.6755 12.099 20.7136C12.1998 21.1249 12.484 21.7464 12.7223 22.1029C12.9515 22.441 13.4648 22.9528 13.7765 23.1722C14.4457 23.6292 15.1882 23.8851 16.0773 23.9765C17.5257 24.1135 18.8823 23.6474 19.8357 22.6969C20.6973 21.8378 21.1465 20.7959 21.2015 19.4981C21.3115 16.9573 19.9548 15.0563 17.6907 14.5902C17.2782 14.4896 16.4807 14.4348 16.2148 14.4622ZM17.599 15.5041C18.5157 15.7509 19.2673 16.3632 19.6798 17.2041C20.4773 18.8309 20.2115 20.8142 19.0107 22.0754C18.3965 22.7152 17.5348 23.0716 16.5723 23.0716C15.014 23.0716 13.7765 22.1394 13.254 20.5674C13.0432 19.9276 12.979 19.3701 13.0523 18.7212C13.2448 16.9664 14.2165 15.7966 15.7657 15.4676C16.169 15.3762 17.2048 15.3944 17.599 15.5041ZM28.6632 14.4805C26.5549 14.7181 24.9873 16.217 24.6298 18.3648C24.3548 19.9825 24.8498 21.6916 25.8948 22.7152C26.6374 23.4464 27.5632 23.8576 28.7274 23.9673C30.0199 24.0953 31.2024 23.748 32.1832 22.962C33.3199 22.0572 33.9249 20.604 33.8515 18.9589C33.769 16.9482 32.7882 15.4584 31.0924 14.7912C30.4324 14.5353 29.3874 14.3982 28.6632 14.4805ZM30.2307 15.5041C31.4499 15.8331 32.3024 16.7562 32.6415 18.0997C32.7974 18.7029 32.7882 19.69 32.6415 20.2475C32.3299 21.4082 31.679 22.2582 30.7532 22.7061C29.7724 23.1905 28.6449 23.1905 27.6457 22.6969C26.7382 22.2491 26.0599 21.3534 25.7757 20.1927C25.5282 19.1782 25.7023 17.8804 26.2065 17.0121C26.5548 16.4089 27.2332 15.8423 27.8932 15.6047C28.489 15.3762 29.6074 15.3396 30.2307 15.5041ZM51.1582 14.4805C49.6182 14.6907 48.6007 15.7326 48.5915 17.0853C48.5915 18.2094 49.169 18.8949 50.489 19.3427C50.6632 19.3976 51.1949 19.5346 51.6807 19.6535C53.514 20.083 53.8899 20.3663 53.8899 21.3077C53.8899 21.6824 53.8716 21.7464 53.7249 22.0389C53.3857 22.7152 52.6799 23.0625 51.6716 23.0625C50.9199 23.0625 50.2232 22.8066 49.8749 22.4045C49.664 22.1577 49.4624 21.7738 49.4257 21.4905L49.389 21.2986H48.8757H48.3624V21.4539C48.3624 21.6824 48.4907 22.1394 48.6465 22.4776C48.9307 23.0899 49.6549 23.6474 50.4249 23.8485C51.1399 24.0313 52.1665 24.0313 52.8907 23.8394C53.6149 23.6566 54.3574 23.1265 54.6416 22.5872C55.0724 21.7921 55.1182 20.8142 54.7607 20.1379C54.3941 19.4433 53.6241 19.032 52.0657 18.6938C51.1857 18.5019 50.7915 18.3922 50.4707 18.2368C49.8657 17.9444 49.6365 17.6336 49.6365 17.0578C49.6365 16.0799 50.3332 15.4493 51.4882 15.3853C52.2491 15.3396 52.7991 15.5041 53.2299 15.9063C53.4407 16.0982 53.7249 16.5917 53.7249 16.7654C53.7249 16.9756 53.7616 16.9939 54.3024 16.9939H54.8157L54.7882 16.8568C54.6049 16.0251 54.4032 15.6047 53.9999 15.2208C53.6791 14.91 53.1932 14.6541 52.6982 14.5445C52.2674 14.4714 51.5432 14.4348 51.1582 14.4805ZM37.5732 19.2239V23.8302L39.5807 23.8119C41.4599 23.7937 41.6065 23.7845 41.9915 23.684C42.8074 23.4738 43.5774 22.9894 44.0907 22.377C44.4482 21.9475 44.8515 21.1341 45.0257 20.5126C45.1357 20.083 45.1449 19.9551 45.1449 19.1508C45.1449 18.3465 45.1357 18.2277 45.0257 17.789C44.5674 16.0799 43.504 15.102 41.6707 14.7181C41.5057 14.6816 40.6899 14.6541 39.4982 14.6359L37.5824 14.6084V19.2239H37.5732ZM40.754 15.5772C41.4415 15.6321 41.8082 15.7235 42.3215 15.9702C42.6424 16.1256 42.7982 16.2444 43.1099 16.5552C43.5499 16.9939 43.7332 17.3137 43.9257 17.9444C44.0449 18.3374 44.054 18.447 44.054 19.1325C44.054 19.7631 44.0357 19.9551 43.9532 20.2749C43.6049 21.5636 42.734 22.4867 41.5882 22.7792C41.2674 22.8614 41.0565 22.8706 39.9199 22.8706H38.6274V19.233C38.6274 17.2315 38.6457 15.5772 38.664 15.559C38.6915 15.5224 40.1124 15.5315 40.754 15.5772Z"></path>
</svg>
