<?xml version="1.0" encoding="utf-8"?>
<!-- Generator: Adobe Illustrator 26.0.2, SVG Export Plug-In . SVG Version: 6.00 Build 0)  -->
<svg version="1.1" id="Layer_1" xmlns="http://www.w3.org/2000/svg" xmlns:xlink="http://www.w3.org/1999/xlink" x="0px" y="0px"
	 viewBox="0 0 213 30" style="enable-background:new 0 0 213 30;" xml:space="preserve">
<style type="text/css">
	.st0{display:none;}
	.st1{display:inline;}
	.st2{fill-rule:evenodd;clip-rule:evenodd;fill:#1C1815;}
	.st3{fill-rule:evenodd;clip-rule:evenodd;fill:#1C1815;}
	.st4{fill:#1C1815;}
	.st5{fill:#1C1815;}
</style>
<g id="Layer_1_00000044859548450469412470000014090313290506319536_" class="st0">
	<g class="st1">
		<g transform="translate(50 .4727)">
			<path class="st2" d="M2,22.1c1.7,0.9,4.3,1.7,6.9,1.7c2.9,0,4.4-1.2,4.4-3c0-1.7-1.3-2.7-4.6-3.9c-4.6-1.6-7.6-4.1-7.6-8.1
				c0-4.7,3.9-8.3,10.4-8.3c3.1,0,5.4,0.6,7,1.4l-1.4,5c-1.1-0.5-3.1-1.3-5.8-1.3s-4,1.2-4,2.7c0,1.8,1.6,2.5,5.1,3.9
				c4.9,1.8,7.2,4.3,7.2,8.2c0,4.6-3.6,8.5-11.1,8.5c-3.2,0-6.3-0.8-7.8-1.7L2,22.1z"/>
			<path class="st2" d="M30.5,2.8v5.7h4.5v4.6h-4.5v7.2c0,2.4,0.6,3.5,2.5,3.5c0.8,0,1.4-0.1,1.8-0.2l0,4.7c-0.8,0.3-2.3,0.5-4,0.5
				c-2,0-3.7-0.7-4.7-1.7c-1.1-1.2-1.7-3.1-1.7-5.9v-8.2h-2.7V8.6h2.7V4.2L30.5,2.8z"/>
			<path class="st2" d="M50.4,16.3c0-1.5-0.7-4.1-3.5-4.1c-2.6,0-3.7,2.4-3.8,4.1H50.4z M43.1,20.5c0.2,2.6,2.7,3.8,5.7,3.8
				c2.1,0,3.8-0.3,5.5-0.8l0.8,4.2c-2,0.8-4.5,1.2-7.2,1.2c-6.8,0-10.7-3.9-10.7-10.2c0-5.1,3.2-10.7,10.1-10.7c6.5,0,8.9,5,8.9,10
				c0,1.1-0.1,2-0.2,2.5L43.1,20.5L43.1,20.5z"/>
			<path class="st2" d="M64,8.6l1.6,8.2c0.4,2.1,0.8,4.3,1.1,6.6h0.1c0.4-2.3,1-4.6,1.5-6.5l2.1-8.2h4.9l2,8
				c0.5,2.2,1.1,4.5,1.5,6.8h0.1c0.3-2.3,0.7-4.5,1.1-6.8l1.7-7.9h6.1l-6.1,20h-5.8l-1.9-7c-0.5-2-0.9-3.8-1.3-6.2h-0.1
				c-0.4,2.5-0.8,4.3-1.3,6.2l-2,7h-5.8l-5.8-20L64,8.6z"/>
			<path class="st2" d="M114.2,18c-0.1-3.3-0.2-7.3-0.2-11.3h-0.1c-0.9,3.5-2,7.4-3.1,10.7l-3.3,10.8h-4.9l-2.9-10.7
				c-0.9-3.2-1.8-7.2-2.5-10.8H97c-0.2,3.7-0.3,8-0.5,11.4l-0.5,10.5h-5.8L92.1,1h8.3l2.7,9.2c0.9,3.2,1.7,6.6,2.3,9.9h0.1
				c0.8-3.2,1.7-6.8,2.6-9.9l2.9-9.2h8.1l1.5,27.6h-6.1L114.2,18z"/>
			<path class="st2" d="M136.1,19.1c-3.3,0-5.8,0.7-5.8,3.1c0,1.6,1.1,2.4,2.5,2.4c1.6,0,2.8-1,3.2-2.3c0.1-0.3,0.1-0.7,0.1-1.1
				V19.1z M136.8,28.5l-0.4-2h-0.1c-1.3,1.6-3.4,2.5-5.7,2.5c-4.1,0-6.5-3-6.5-6.1c0-5.2,4.7-7.7,11.7-7.6v-0.3
				c0-1.1-0.6-2.6-3.6-2.6c-2,0-4.2,0.7-5.5,1.5l-1.2-4c1.4-0.8,4.1-1.8,7.8-1.8c6.7,0,8.8,3.9,8.8,8.6v7c0,1.9,0.1,3.8,0.3,4.9
				L136.8,28.5L136.8,28.5z"/>
			<path class="st2" d="M162,28.1c-1.1,0.5-3.2,0.9-5.6,0.9c-6.5,0-10.6-3.9-10.6-10.2c0-5.9,4-10.6,11.5-10.6
				c1.6,0,3.4,0.3,4.7,0.8l-1,4.6c-0.7-0.3-1.8-0.6-3.5-0.6c-3.3,0-5.4,2.3-5.4,5.6c0,3.7,2.5,5.6,5.5,5.6c1.5,0,2.6-0.2,3.6-0.6
				L162,28.1z"/>
		</g>
		<g transform="translate(0 1.2627)">
			<path class="st3" d="M0,27.7h6.5v-27H0V27.7z"/>
			<path class="st3" d="M22.5,27.7h9v-27h-9V27.7z"/>
			<g transform="translate(35 .7373)">
				<path class="st3" d="M0,27h9V0H0V27z"/>
				<path class="st2" d="M7.5,13.6c0-1.7-1.3-3-3-3s-3,1.3-3,3s1.3,3,3,3S7.5,15.2,7.5,13.6z"/>
			</g>
			<g transform="translate(10 .7373)">
				<path class="st3" d="M0,27h9V0H0V27z"/>
				<g>
					<path class="st2" d="M4.5,17.4c-1.7,0-3,1.3-3,3s1.3,3,3,3s3-1.3,3-3S6.2,17.4,4.5,17.4z"/>
					<path class="st2" d="M7.5,6.8c0-1.7-1.3-3-3-3s-3,1.3-3,3s1.3,3,3,3S7.5,8.4,7.5,6.8z"/>
				</g>
			</g>
		</g>
	</g>
</g>
<g>
	<g>
		<g>
			<g>
				<rect x="1.6" y="5.7" class="st4" width="36.7" height="23.3"/>
			</g>
			<g>
				<g>
					<path class="st4" d="M44.2,21.7c1.2,0.7,3.6,1.5,5.4,1.5c1.9,0,2.7-0.7,2.7-1.7c0-1-0.6-1.5-3-2.3c-4.2-1.4-5.8-3.7-5.8-6.1
						c0-3.8,3.2-6.6,8.3-6.6c2.4,0,4.5,0.5,5.7,1.2L56.4,12c-0.9-0.5-2.7-1.2-4.4-1.2c-1.5,0-2.4,0.6-2.4,1.7c0,1,0.8,1.5,3.3,2.3
						c3.9,1.3,5.5,3.3,5.5,6.3c0,3.8-3,6.6-8.8,6.6c-2.7,0-5-0.6-6.6-1.4L44.2,21.7z"/>
					<path class="st4" d="M69.3,1.2V7h4.5v4.6h-4.5v7.3c0,2.4,0.6,3.6,2.5,3.6c0.8,0,1.4-0.1,1.9-0.2l0,4.8
						c-0.8,0.3-2.3,0.5-4.1,0.5c-2,0-3.7-0.7-4.7-1.7c-1.2-1.2-1.7-3.2-1.7-6v-8.3h-2.7V7h2.7V2.6L69.3,1.2z"/>
					<path class="st4" d="M82.1,19.1c0.2,2.6,2.8,3.9,5.7,3.9c2.2,0,3.9-0.3,5.6-0.8l0.8,4.3c-2.1,0.8-4.6,1.2-7.3,1.2
						c-6.9,0-10.8-4-10.8-10.3c0-5.1,3.2-10.8,10.2-10.8c6.6,0,9,5.1,9,10.1c0,1.1-0.1,2-0.2,2.5H82.1z M89.5,14.8
						c0-1.5-0.7-4.1-3.6-4.1c-2.7,0-3.7,2.4-3.9,4.1H89.5z"/>
					<path class="st4" d="M103.2,7l1.6,8.3c0.4,2.1,0.8,4.4,1.2,6.7h0.1c0.4-2.3,1-4.6,1.5-6.6l2.2-8.3h5l2,8.1
						c0.5,2.3,1.1,4.6,1.5,6.9h0.1c0.3-2.3,0.7-4.6,1.2-6.9l1.7-8h6.2l-6.2,20.3h-5.9l-1.9-7.1c-0.5-2-0.9-3.8-1.3-6.3H112
						c-0.4,2.5-0.8,4.4-1.3,6.3l-2,7.1h-5.9L96.8,7H103.2z"/>
					<path class="st4" d="M130.4,13.4c0-2.5-0.1-4.7-0.2-6.5h5.3l0.3,2.7h0.1c0.9-1.3,2.7-3.2,6.1-3.2c2.6,0,4.7,1.3,5.6,3.4h0.1
						c0.7-1,1.7-1.9,2.6-2.4c1.1-0.7,2.4-1,3.9-1c3.9,0,6.8,2.7,6.8,8.8v11.9h-6.1v-11c0-2.9-1-4.6-3-4.6c-1.5,0-2.5,1-2.9,2.2
						c-0.2,0.5-0.2,1.1-0.2,1.6v11.9h-6.1V15.9c0-2.6-0.9-4.3-2.9-4.3c-1.6,0-2.6,1.2-2.9,2.3c-0.2,0.5-0.2,1.1-0.2,1.6v11.8h-6.1
						V13.4z"/>
					<path class="st4" d="M177.6,27.2l-0.4-2h-0.1c-1.3,1.6-3.4,2.5-5.8,2.5c-4.1,0-6.6-3-6.6-6.2c0-5.3,4.7-7.8,11.9-7.8v-0.3
						c0-1.1-0.6-2.6-3.7-2.6c-2.1,0-4.3,0.7-5.6,1.5l-1.2-4.1c1.4-0.8,4.2-1.8,7.9-1.8c6.8,0,8.9,4,8.9,8.8v7.1
						c0,1.9,0.1,3.8,0.3,4.9H177.6z M176.8,17.7c-3.3,0-5.9,0.7-5.9,3.2c0,1.6,1.1,2.4,2.5,2.4c1.6,0,2.9-1,3.3-2.3
						c0.1-0.3,0.1-0.7,0.1-1.1V17.7z"/>
					<path class="st4" d="M203,26.7c-1.1,0.5-3.2,0.9-5.6,0.9c-6.6,0-10.7-4-10.7-10.4c0-5.9,4.1-10.8,11.6-10.8
						c1.7,0,3.5,0.3,4.8,0.8l-1,4.7c-0.7-0.3-1.9-0.6-3.5-0.6c-3.3,0-5.5,2.4-5.4,5.7c0,3.7,2.5,5.7,5.6,5.7c1.5,0,2.7-0.2,3.6-0.6
						L203,26.7z"/>
				</g>
			</g>
		</g>
		<g>
			<path class="st4" d="M210.5,6.2c-0.7,0.7-1.5,1-2.4,1c-0.9,0-1.7-0.3-2.4-1c-0.7-0.7-1-1.5-1-2.4c0-0.9,0.3-1.7,1-2.4
				c0.7-0.7,1.4-1,2.4-1c0.9,0,1.7,0.3,2.4,1c0.7,0.7,1,1.5,1,2.4C211.5,4.7,211.1,5.5,210.5,6.2z M206,1.7
				c-0.6,0.6-0.9,1.3-0.9,2.1c0,0.8,0.3,1.5,0.9,2.1c0.6,0.6,1.2,0.9,2,0.9c0.8,0,1.5-0.3,2.1-0.9c0.6-0.6,0.9-1.3,0.9-2.1
				c0-0.8-0.3-1.5-0.9-2.1c-0.6-0.6-1.2-0.9-2.1-0.9C207.3,0.9,206.6,1.2,206,1.7z M208,1.9c0.5,0,0.8,0,1,0.1
				c0.4,0.2,0.6,0.5,0.6,0.9c0,0.3-0.1,0.6-0.4,0.7c-0.1,0.1-0.3,0.1-0.5,0.2c0.3,0,0.5,0.2,0.6,0.4c0.1,0.2,0.2,0.4,0.2,0.6v0.3
				c0,0.1,0,0.2,0,0.3c0,0.1,0,0.2,0,0.2l0,0H209c0,0,0,0,0,0c0,0,0,0,0,0l0-0.1V5.2c0-0.4-0.1-0.7-0.4-0.8
				c-0.1-0.1-0.4-0.1-0.7-0.1h-0.5v1.5h-0.7V1.9H208z M208.7,2.5c-0.2-0.1-0.4-0.1-0.8-0.1h-0.6v1.3h0.6c0.3,0,0.5,0,0.6-0.1
				c0.3-0.1,0.4-0.3,0.4-0.6C209,2.8,208.9,2.6,208.7,2.5z"/>
		</g>
	</g>
	<g>
		<rect x="3.6" y="7.4" class="st5" width="5.1" height="20"/>
		<rect x="21" y="7.4" class="st5" width="6.4" height="20"/>
		<path class="st5" d="M36.5,27.4h-6.4v-20h6.4V27.4z M35.5,17.4c0-1.2-1-2.2-2.2-2.2c-1.2,0-2.2,1-2.2,2.2c0,1.2,1,2.2,2.2,2.2
			C34.5,19.6,35.5,18.6,35.5,17.4z"/>
		<path class="st5" d="M18.4,27.4h-7.1v-20h7.1V27.4z M17,12.2c0-1.2-1-2.2-2.2-2.2s-2.2,1-2.2,2.2s1,2.2,2.2,2.2S17,13.5,17,12.2z
			 M14.8,20.3c-1.2,0-2.2,1-2.2,2.2s1,2.2,2.2,2.2s2.2-1,2.2-2.2S16,20.3,14.8,20.3z"/>
	</g>
</g>
</svg>
