<svg viewBox="0 0 461.07 100.16" xmlns="http://www.w3.org/2000/svg">
  <defs>
    <style>
      .svcls-1 {
        fill: #1a1c16;
      }
      .svcls-2 {
        fill: #8ab71c;
      }
    </style>
  </defs>
  <title>Swanson Vitamins Logo</title>
  <g>
    <g>
      <path d="M34.72,0s-2.89,22.15,19.58,24.79c0,0,2.8-22.16-19.58-24.79Z" class="svcls-2"></path>
      <path d="M129.45,0s2.89,22.15-19.58,24.79C109.87,24.79,107.07,2.63,129.45,0Z" class="svcls-2"></path>
    </g>
    <g>
      <path d="M39.41,99.67s21.77,5.01,26.55-17.11c0,0-21.79-4.91-26.55,17.11Z" class="svcls-2"></path>
      <path d="M98.53,83.2s5.38,21.7,27.27,16c0,0-5.47-21.67-27.27-16Z" class="svcls-2"></path>
    </g>
    <g>
      <path d="M0,55.21s18.16,29.84,50.61,10.12c0,0-19.98-30.54-50.61-10.12Z" class="svcls-2"></path>
      <path d="M114.22,65.2s28.54,20.13,50.45-10.88c0,0-30.5-20.05-50.45,10.88Z" class="svcls-2"></path>
    </g>
    <circle r="14.69" cy="20.18" cx="82.52" class="svcls-2"></circle>
    <path d="M35.64,31.54c19.46,1.23,31.51,8.16,45.95,22.44.38.38,1,.38,1.39,0,14.47-14.28,27.27-21.21,46.86-22.44,1.09-.07,1.47,1.41.48,1.87-22.3,10.36-40.82,28.97-47.16,56.65-.2.86-1.75.85-1.93,0-5.95-27.92-23.84-46.32-46.06-56.64-.99-.46-.62-1.94.47-1.87Z" class="svcls-2"></path>
  </g>
  <g>
    <path d="M452.34,52.38c-1.43,2.43-6.78,2.14-8.39-.2-3.75-5.48-7.65-10.86-11.48-16.28-1.8-2.54-3.6-5.09-5.4-7.63-.1-.14-.22-.28-.46-.59v25.95h-7.31v-1.14c0-11.39,0-22.78,0-34.16,0-2.35.8-3.28,3.15-3.66,2.61-.43,4.62.38,6.19,2.61,5.06,7.18,10.2,14.3,15.31,21.44.39.55.8,1.09,1.36,1.85V14.72h7.04v37.67ZM247.35,45c-2.42-8.62-4.85-17.25-7.28-25.89h-7.25c-2.39,8.56-4.77,17.1-7.15,25.64-.07-.01-.13-.03-.2-.04-2.13-9.97-4.26-19.93-6.39-29.9h-8.19c.06.32.09.61.15.88,2.83,11.71,5.67,23.43,8.49,35.14.38,1.58,1.3,2.72,2.88,3.04,1.37.28,2.82.43,4.2.3,2.07-.2,3.64-1.19,4.22-3.43,1.56-6.01,3.19-12.01,4.8-18.01.2-.76.44-1.5.66-2.26.9,2.72,1.62,5.41,2.35,8.1,1.1,4.09,2.21,8.18,3.29,12.28.44,1.69,1.48,2.86,3.17,3.1,1.59.22,3.27.27,4.85.03,1.72-.26,2.85-1.39,3.29-3.21,2.53-10.46,5.11-20.91,7.67-31.37.37-1.51.72-3.02,1.11-4.64-2.48,0-4.81.02-7.14-.01-.63,0-.85.19-.98.81-1.28,5.99-2.59,11.97-3.9,17.95-.83,3.83-1.67,7.65-2.5,11.48-.05,0-.1.01-.15.02ZM310.66,28.27c5.47,7.74,10.98,15.44,16.38,23.22,1.5,2.16,3.47,2.87,5.87,2.54,2.63-.36,3.17-1.37,3.17-3.48-.03-11.54-.02-23.09-.02-34.63v-1.07h-7.17v25.66c-.26-.32-.4-.48-.52-.64-5.39-7.52-10.8-15.03-16.14-22.59-1.57-2.23-3.58-3.03-6.19-2.61-2.34.38-3.14,1.32-3.14,3.67,0,11.39,0,22.77,0,34.16v1.13h7.27v-26.01c.28.37.4.5.5.64ZM374.98,40.24c1.35,5.56,4.48,9.77,9.76,12.22,3.83,1.77,7.86,2.18,11.99,1.6,5.96-.84,10.72-3.66,13.56-9.08,3.33-6.36,3.41-13,.88-19.63-2.01-5.26-5.87-8.68-11.24-10.36-3.21-1.01-6.51-1.13-9.81-.63-4.87.73-8.93,2.95-11.89,6.96-2.86,3.87-3.94,8.3-4.1,13.06.14,2.02.38,3.96.85,5.87ZM298.48,53.65c-.09-.27-.14-.48-.22-.68-4.19-11.43-8.42-22.85-12.55-34.3-.86-2.39-2.22-3.89-4.81-4.06-3.47-.22-5.39.72-6.5,3.81-3.77,10.48-7.64,20.93-11.47,31.39-.47,1.27-.91,2.55-1.39,3.9,2.53,0,4.93-.02,7.32.01.61,0,.85-.19,1.04-.77.89-2.75,1.87-5.46,2.76-8.21.18-.55.44-.71,1-.71,4.32.92,8.88,1.03,12.68,0,.61,0,.87.2,1.06.77.97,2.95,1.99,5.88,2.99,8.84h8.07ZM182.96,51.2c4.73,2.97,9.9,3.73,15.31,2.61,3.42-.71,6.38-2.32,8.46-5.24,3.03-4.24,2.97-11.05-2.51-14.4-1.99-1.22-4.22-2.06-6.38-2.97-2.02-.86-4.12-1.53-6.13-2.4-1.21-.52-2.16-1.42-2.49-2.79-.52-2.17.65-4.19,2.94-5.03,2.31-.85,4.66-.79,6.95-.06,1.75.56,3.43,1.35,5.23,2.07.99-1.69,2.04-3.49,3.09-5.3-2.9-1.97-6.02-3.11-9.38-3.45-3.94-.39-7.78-.07-11.36,1.91-6.38,3.52-7.11,13.1-1.24,17.27,2.34,1.66,4.95,2.69,7.63,3.63,1.78.62,3.56,1.23,5.29,1.95,1.12.47,2.03,1.25,2.41,2.5.65,2.16-.56,4.46-2.95,5.43-3.27,1.32-6.51.94-9.61-.49-1.6-.74-3.02-1.86-4.57-2.85-1.21,1.57-2.49,3.24-3.9,5.08,1.12.9,2.08,1.84,3.19,2.54ZM359.89,14.24c-3.91-.38-7.72-.07-11.28,1.87-6.49,3.55-7.16,13.17-1.29,17.32,2.35,1.66,4.96,2.69,7.63,3.62,1.75.61,3.5,1.21,5.21,1.92,1.16.48,2.1,1.26,2.48,2.55.64,2.16-.57,4.48-2.98,5.41-3.76,1.46-7.36.81-10.78-1.09-1.16-.64-2.19-1.53-3.32-2.33-1.28,1.67-2.56,3.33-3.97,5.17,1.13.89,2.14,1.84,3.3,2.57,4.67,2.96,9.79,3.66,15.14,2.58,3.46-.7,6.45-2.32,8.55-5.27,3.02-4.24,2.96-11.04-2.53-14.4-1.99-1.22-4.22-2.05-6.38-2.97-2.02-.86-4.11-1.53-6.12-2.41-1.21-.53-2.15-1.43-2.48-2.8-.51-2.17.67-4.18,2.96-5.02,2.31-.84,4.66-.78,6.95-.05,1.75.56,3.43,1.35,5.21,2.06.98-1.68,2.03-3.47,3.1-5.3-2.93-1.98-6.04-3.12-9.4-3.45ZM382.31,34.2c.16-2.2.31-4.29.99-6.28,1.46-4.32,4.7-6.57,9.19-6.93,3.9-.31,7.37.7,9.85,4,1.45,1.94,2.15,4.17,2.4,6.55.32,3.06.24,6.1-.87,9.02-2.01,5.34-6.69,7.29-11.65,6.79-6.46-.65-9.4-5.42-9.9-11.18-.06-.66,0-1.32,0-1.98-.11-.02,0,.45,0,0ZM275.17,37.36c1.58-4.7,3.16-9.39,4.83-14.33,1.67,4.91,3.26,9.57,4.88,14.33-2.98,1.09-6.34,1.09-9.71,0Z" class="svcls-1"></path>
    <path d="M454.99,17.65v-.02c0-1.66,1.34-3.05,3.04-3.05s3.04,1.38,3.04,3.04v.02c0,1.66-1.34,3.05-3.04,3.05s-3.04-1.38-3.04-3.04ZM460.72,17.63v-.02c0-1.48-1.15-2.71-2.69-2.71s-2.69,1.24-2.69,2.72v.02c0,1.48,1.15,2.71,2.69,2.71s2.69-1.24,2.69-2.72ZM456.9,16.04h1.36c.63,0,1.14.33,1.14.94,0,.51-.33.8-.75.93l.85,1.19h-.61l-.77-1.12h-.73v1.12h-.49v-3.05ZM458.21,17.58c.44,0,.68-.23.68-.56,0-.37-.26-.54-.68-.54h-.82v1.1h.82Z" class="svcls-1"></path>
    <g>
      <path d="M243.2,68.81h5.7l-7.81,24.88c-.48,1.55-1.8,2.33-3.98,2.33s-3.54-.77-4.02-2.33l-7.77-24.88h5.86l6.01,21.39,6.01-21.39Z" class="svcls-1"></path>
      <path d="M253.21,95.6v-26.8h5.4v26.8h-5.4Z" class="svcls-1"></path>
      <path d="M283.69,68.81v4.5h-7.62v22.29h-5.4v-22.29h-7.69v-4.5h20.72Z" class="svcls-1"></path>
      <path d="M337.51,68.66c.83,0,1.51.17,2.05.51.54.34.81.84.81,1.52v24.92h-5.26v-17.3l-6.34,12.23h-4.84l-6.38-12.23v17.3h-5.26v-24.88c0-.68.28-1.19.83-1.54.55-.35,1.24-.53,2.06-.53,1,0,1.72.17,2.16.51.44.34.92.99,1.45,1.97l7.58,14.49,7.58-14.49c.5-.98.97-1.63,1.41-1.97.44-.34,1.16-.51,2.16-.51Z" class="svcls-1"></path>
      <path d="M347.16,95.6v-26.8h5.4v26.8h-5.4Z" class="svcls-1"></path>
      <path d="M377.18,68.81h4.92v25.33c0,.53-.26.95-.77,1.26s-1.16.47-1.93.47c-.85,0-1.51-.11-1.97-.34s-.89-.61-1.29-1.16l-11.86-16.78v18.02h-4.99v-24.81c0-.73.26-1.26.79-1.61.52-.35,1.21-.53,2.06-.53,1,0,1.73.15,2.2.45.46.3,1.01.9,1.63,1.8l11.22,15.69v-17.79Z" class="svcls-1"></path>
      <path d="M396.44,96.02c-1.9,0-3.71-.34-5.42-1.03-1.71-.69-3.12-1.66-4.22-2.91l2.74-3.57c1.98,1.98,4.28,2.97,6.91,2.97,1.53,0,2.73-.33,3.6-.99.87-.66,1.31-1.5,1.31-2.5,0-.33-.04-.63-.13-.9-.09-.28-.25-.53-.49-.75-.24-.23-.44-.41-.6-.54-.16-.14-.47-.3-.92-.49-.45-.19-.78-.32-.98-.39s-.6-.21-1.18-.39c-.59-.19-.98-.32-1.18-.39-1.18-.4-2.17-.79-2.98-1.18-.81-.39-1.63-.89-2.46-1.5-.82-.61-1.45-1.36-1.88-2.25-.43-.89-.64-1.91-.64-3.06,0-2.45.89-4.37,2.66-5.74,1.78-1.38,4.08-2.06,6.91-2.06,3.1,0,5.88.82,8.33,2.48l-2.21,3.79c-2.03-1.28-4.02-1.91-5.97-1.91-1.33,0-2.4.28-3.23.84-.83.56-1.24,1.34-1.24,2.34,0,.38.05.71.15,1.01.1.3.31.58.64.85.33.26.59.48.79.64.2.16.59.36,1.16.58s.97.38,1.18.45c.21.07.69.24,1.45.49,1.23.4,2.24.79,3.06,1.16.81.37,1.65.86,2.51,1.46.86.6,1.51,1.35,1.93,2.23.43.89.64,1.91.64,3.06,0,2.38-.96,4.34-2.89,5.89-1.93,1.55-4.38,2.33-7.36,2.33Z" class="svcls-1"></path>
      <path d="M308.39,95.56c-.06-.19-.1-.33-.15-.47-2.89-7.87-5.8-15.73-8.64-23.61-.59-1.65-1.52-2.68-3.31-2.79-2.39-.15-3.71.5-4.47,2.62-2.6,7.21-5.26,14.41-7.9,21.61-.32.88-.63,1.76-.96,2.69,1.74,0,3.39-.01,5.04,0,.42,0,.59-.13.72-.53.62-1.89,1.28-3.76,1.9-5.65.12-.38.3-.49.69-.49,2.97.63,6.11.71,8.73,0,.42,0,.6.14.73.53.67,2.03,1.37,4.05,2.06,6.08h5.56ZM292.35,84.35c1.09-3.24,2.18-6.46,3.32-9.86,1.15,3.38,2.24,6.59,3.36,9.86-2.05.75-4.37.75-6.68,0Z" class="svcls-1"></path>
    </g>
  </g>
</svg>