<svg version="1.1" height="25.826" width="187" viewBox="0 0 187 25.825822" xmlns="http://www.w3.org/2000/svg"> <metadata id="metadata9">   image/svg+xml     </metadata> <defs id="defs7"></defs>  <style>.st0{fill:#062B3A;}</style> <path style="fill:#1C1815;fill-opacity:1" fill="#1C1815" d="M179.806 6.8c1.58 1.607 2.37 3.662 2.37 6.14 0 2.503-.79 4.532-2.344 6.14-1.555 1.607-3.53 2.398-5.903 2.398-2.4 0-4.35-.79-5.904-2.4-1.555-1.606-2.32-3.662-2.32-6.14 0-2.502.765-4.53 2.32-6.14 1.555-1.606 3.505-2.397 5.903-2.397 2.344-.025 4.294.792 5.876 2.4m-18.922 6.113c0 3.69 1.24 6.773 3.742 9.223 2.504 2.45 5.587 3.663 9.277 3.663 3.663 0 6.772-1.213 9.302-3.664 2.53-2.45 3.795-5.507 3.795-9.223 0-3.69-1.265-6.773-3.795-9.224-2.53-2.45-5.64-3.664-9.302-3.664-3.69 0-6.773 1.213-9.277 3.663-2.503 2.477-3.742 5.534-3.742 9.223m-27.67-9.197c-2.504 2.45-3.77 5.534-3.77 9.223 0 3.69 1.24 6.772 3.743 9.223 2.504 2.45 5.587 3.663 9.277 3.663 2.37 0 4.506-.527 6.43-1.608 1.924-1.054 3.426-2.53 4.506-4.374l-3.663-2.636c-1.766 2.847-4.164 4.27-7.22 4.27-2.4 0-4.35-.79-5.93-2.4-1.555-1.58-2.345-3.635-2.345-6.14 0-2.53.79-4.584 2.345-6.192 1.555-1.607 3.53-2.398 5.93-2.398 3.056 0 5.48 1.423 7.22 4.27L153.4 5.98c-1.107-1.845-2.61-3.32-4.533-4.374C146.97.553 144.835 0 142.49 0c-3.663.053-6.746 1.265-9.276 3.716M121.25.5h-4.823v24.85h4.823V.5zm-20.03 0v15.285L86.65.053h-1.634V25.35h4.823V9.936L104.463 25.8h1.58V.5h-4.822zM69.836.5v15.285L55.262.053h-1.634V25.35h4.823V9.936L73.078 25.8h1.58V.5h-4.822zm-31.57 17.394H31.28l3.506-8.855 3.478 8.854zm3.214 7.457h5.19L35.604.027h-1.608L22.927 25.35h5.192l1.474-3.345H40.03l1.45 3.346zM20.95.5H0v4.323h8.064V25.35h4.823V4.824h8.064V.5z" class="st0"></path> </svg>
