<svg width="32" height="32" viewBox="0 0 32 32" fill="none" xmlns="http://www.w3.org/2000/svg">
  <rect width="32" height="32" rx="7" fill="#F7F4EE"/>
  <rect x="10.5" y="6.5" width="17" height="12" rx="1.8" stroke="#1C1815" stroke-width="2"/>
  <rect x="8" y="20.2" width="22" height="2.6" rx="1.3" fill="#1C1815"/>
  <rect x="2.6" y="9.5" width="9.6" height="16.5" rx="2.6" fill="#F7F4EE" stroke="#1C1815" stroke-width="2"/>
  <line x1="6" y1="23.2" x2="8.8" y2="23.2" stroke="#1C1815" stroke-width="1.6" stroke-linecap="round"/>
  <path d="M11 12.2h9.8l-1.15 5.2a1.3 1.3 0 0 1-1.27 1.02h-4.9a1.3 1.3 0 0 1-1.27-1.02L10.2 10h-1.7" stroke="#F7F4EE" stroke-width="4.6" stroke-linecap="round" stroke-linejoin="round"/>
  <path d="M11 12.2h9.8l-1.15 5.2a1.3 1.3 0 0 1-1.27 1.02h-4.9a1.3 1.3 0 0 1-1.27-1.02L10.2 10h-1.7" stroke="#D8541E" stroke-width="2" stroke-linecap="round" stroke-linejoin="round"/>
  <circle cx="13.1" cy="21.4" r="1.35" fill="#D8541E"/>
  <circle cx="18.2" cy="21.4" r="1.35" fill="#D8541E"/>
</svg>
